<svg version="1.1" x="0px" y="0px" width="1368px" height="248px" viewBox="0 0 1368 248" enable-background="new 0 0 841.89 595.28" xmlns="http://www.w3.org/2000/svg">
  <defs></defs>
  <g transform="matrix(2.704519, 0, 0, 2.710529, -454.605316, -683.73645)">
    <g>
      <g>
        <circle fill="#DA2037" cx="453.302" cy="280.315" r="13.156"></circle>
      </g>
      <g>
        <circle fill="#DA2037" cx="417.721" cy="280.315" r="13.157"></circle>
      </g>
      <g>
        <circle fill="#DA2037" cx="453.302" cy="315.685" r="13.156"></circle>
      </g>
      <g>
        <circle fill="#DA2037" cx="417.721" cy="315.685" r="13.157"></circle>
      </g>
    </g>
    <g>
      <g>
        <path fill="#ffffff" d="M498.107,326.603c-14.216,0-21.654-9.868-21.654-19.617v-17.971c0-9.748,7.438-19.617,21.654-19.617
          c8.178,0,14.77,3.226,18.566,9.084c1.893,2.922,1.058,6.828-1.866,8.722c-2.922,1.895-6.827,1.06-8.721-1.864
          c-1.782-2.75-5.324-3.328-7.979-3.328c-8.389,0-9.04,5.36-9.04,7.002v17.971c0,1.644,0.651,7.004,9.04,7.004
          c2.655,0,6.195-0.579,7.979-3.329c1.894-2.925,5.799-3.758,8.721-1.865c2.924,1.896,3.759,5.8,1.866,8.723
          C512.877,323.377,506.285,326.603,498.107,326.603z" />
      </g>
    </g>
    <path fill="#ffffff" d="M652.256,269.397c-4.466,0-8.261,0.974-11.367,2.611c-1.087-0.884-2.472-1.416-3.98-1.416
      c-3.482,0-6.307,2.824-6.307,6.307v42.2c0,3.484,2.824,6.308,6.307,6.308c3.483,0,6.309-2.823,6.309-6.308v-30.085
      c0-1.643,0.65-7.003,9.039-7.003c8.387,0,9.039,5.36,9.039,7.003V319.1c0,3.484,2.823,6.308,6.307,6.308
      c3.484,0,6.308-2.823,6.308-6.308v-30.085C673.909,279.265,666.473,269.397,652.256,269.397z" />
    <path fill="#ffffff" d="M345.151,313.483c-2.168-2.726-6.136-3.181-8.861-1.013c-1.045,0.83-2.142,1.519-4.988,1.519
      c-3.689,0-7.64-2.872-7.64-7.146v-23.686h9.881c3.483,0,6.307-2.824,6.307-6.307c0-3.483-2.824-6.307-6.307-6.307h-9.881v-11.983
      c0-3.483-2.824-6.308-6.307-6.308c-3.483,0-6.307,2.825-6.307,6.308v11.983h-5.256c-3.483,0-6.307,2.824-6.307,6.307
      c0,3.483,2.824,6.307,6.307,6.307h5.256v23.686c0,10.895,9.085,19.759,20.253,19.759c5.174,0,9.133-1.313,12.837-4.257
      C346.866,320.178,347.319,316.211,345.151,313.483z" />
    <path fill="#ffffff" d="M220.439,269.398c-6.599,0-11.736,2.128-15.347,5.383c-3.612-3.254-8.748-5.383-15.347-5.383
      c-4.464,0-8.26,0.974-11.367,2.612c-1.086-0.885-2.471-1.417-3.98-1.417c-3.483,0-6.307,2.824-6.307,6.307v42.2
      c0,3.484,2.824,6.308,6.307,6.308c3.483,0,6.307-2.823,6.307-6.308v-30.085c0-1.643,0.652-7.002,9.04-7.002
      c8.388,0,9.04,5.36,9.04,7.002V319.1c0,3.484,2.825,6.308,6.308,6.308c3.483,0,6.307-2.823,6.307-6.308v-30.085
      c0-1.643,0.651-7.002,9.04-7.002c8.388,0,9.04,5.36,9.04,7.002V319.1c0,3.484,2.824,6.308,6.308,6.308
      c3.483,0,6.306-2.823,6.306-6.308v-30.085C242.092,279.267,234.655,269.398,220.439,269.398z" />
    <path fill="#ffffff" d="M371.24,269.412c-5.608,0-10.813,1.964-15.468,5.836c-2.678,2.228-3.042,6.204-0.815,8.882
      c2.228,2.679,6.205,3.043,8.882,0.815c2.394-1.991,4.745-2.919,7.4-2.919c7.367,0,10.041,4.162,10.041,6.957l0,0.689
      c-10.84-0.705-19.023,1.165-24.374,5.585c-3.903,3.224-6.086,7.615-6.313,12.695c-0.251,5.604,2.101,10.832,6.453,14.341
      c3.521,2.84,7.977,4.313,12.768,4.313c2.097,0,4.259-0.282,6.433-0.856c2.446-0.646,4.516-1.659,6.258-2.907
      c1.149,1.553,2.987,2.563,5.065,2.565h0.003c3.482,0,6.306-2.822,6.307-6.304l0.015-30.118
      C393.895,279.497,385.955,269.412,371.24,269.412z M373.024,313.554c-3.17,0.839-6.184,0.435-8.061-1.079
      c-0.857-0.692-1.86-1.939-1.769-3.958c0.066-1.482,0.621-2.605,1.746-3.534c1.204-0.994,4.464-2.847,12.038-2.847
      c1.3,0,2.731,0.057,4.296,0.179l-0.002,6.119C381.173,310.275,378.034,312.23,373.024,313.554z" />
    <path fill="#ffffff" d="M597.51,269.412c-5.609,0-10.813,1.964-15.469,5.836c-2.677,2.228-3.043,6.204-0.814,8.882
      c2.227,2.679,6.204,3.043,8.883,0.815c2.394-1.991,4.744-2.919,7.4-2.919c7.366,0,10.041,4.162,10.041,6.957v0.689
      c-10.842-0.705-19.024,1.165-24.375,5.585c-3.903,3.224-6.086,7.615-6.315,12.695c-0.25,5.604,2.102,10.832,6.454,14.341
      c3.52,2.84,7.978,4.313,12.768,4.313c2.099,0,4.259-0.282,6.433-0.856c2.447-0.646,4.516-1.659,6.259-2.907
      c1.147,1.553,2.986,2.563,5.064,2.565h0.005c3.48,0,6.304-2.822,6.307-6.304l0.016-30.118
      C620.165,279.497,612.225,269.412,597.51,269.412z M599.293,313.554c-3.171,0.839-6.184,0.435-8.062-1.079
      c-0.856-0.692-1.86-1.939-1.769-3.958c0.067-1.482,0.622-2.605,1.746-3.534c1.202-0.994,4.465-2.847,12.039-2.847
      c1.299,0,2.729,0.057,4.296,0.179l-0.003,6.119C607.44,310.275,604.303,312.23,599.293,313.554z" />
    <g>
      <path fill="#ffffff" d="M274.107,326.603c-14.715,0-22.655-10.085-22.655-19.574v-18.014c0-5.045,1.877-9.78,5.284-13.334
        c2.748-2.867,7.81-6.283,16.316-6.283s13.568,3.417,16.316,6.283c3.407,3.554,5.283,8.289,5.283,13.334v9.128
        c0,3.482-2.823,6.307-6.307,6.307h-24.277v2.578c0,2.799,2.674,6.961,10.041,6.961c2.895,0,7.125-0.816,8.696-1.494
        c3.2-1.375,6.91,0.101,8.287,3.3c1.377,3.2-0.1,6.911-3.3,8.287C284.451,325.52,278.569,326.603,274.107,326.603z
        M264.066,291.836h17.97v-2.821c0-1.643-0.648-7.004-8.985-7.004c-8.337,0-8.985,5.361-8.985,7.004V291.836z" />
    </g>
    <path fill="#ffffff" d="M547.56,269.398c-4.465,0-8.26,0.975-11.367,2.612c-1.085-0.884-2.47-1.417-3.98-1.417
      c-3.482,0-6.306,2.824-6.306,6.307v60.54c0,3.483,2.823,6.307,6.306,6.307c3.485,0,6.309-2.823,6.309-6.307v-12.404
      c2.619,0.996,5.632,1.567,9.039,1.567c14.217,0,21.653-9.867,21.653-19.617v-17.971
      C569.213,279.267,561.776,269.398,547.56,269.398z M556.599,306.985c0,1.644-0.65,7.004-9.039,7.004
      c-8.388,0-9.039-5.36-9.039-7.004v-17.971c0-1.643,0.651-7.002,9.039-7.002c8.389,0,9.039,5.36,9.039,7.002V306.985z" />
  </g>
</svg>
