<svg
  xmlns="http://www.w3.org/2000/svg"
  x="0"
  y="0"
  width="684"
  height="124"
  viewBox="0 0 1368 248"
  preserveAspectRatio="xMinYMin meet"
>
  <symbol id="dots" fill="#DA2037" viewBox="0 0 14 14">
    <circle cx="3" cy="3" r="3" />
    <circle cx="3" cy="11" r="3" />
    <circle cx="11" cy="3" r="3" />
    <circle cx="11" cy="11" r="3" />
  </symbol>
  <symbol id="logo" viewBox="0 0 1368 248">
    <g class="text" fill="#43424A" style="fill: var(--text-color, #43424A)">
      <path d="M141.577 46.475c-17.847 0-31.74 5.768-41.507 14.591-9.768-8.82-23.659-14.59-41.506-14.59-12.073 0-22.34 2.64-30.742 7.08A17.057 17.095 0 0 0 0 66.81v114.384a17.06 17.098 0 1 0 34.115 0V99.648c0-4.454 1.764-18.98 24.45-18.98s24.448 14.53 24.448 18.98v81.546a17.06 17.098 0 0 0 34.118 0V99.648c0-4.454 1.76-18.98 24.448-18.98 22.686 0 24.45 14.53 24.45 18.98v81.546a17.06 17.098 0 1 0 34.114 0V99.648c-.005-26.422-20.119-53.173-58.566-53.173z"/>
      <path d="M286.723 201.531c-39.797 0-61.271-27.335-61.271-53.056V99.648c0-13.675 5.076-26.51 14.29-36.142 7.433-7.771 21.123-17.03 44.128-17.03s36.695 9.261 44.127 17.03c9.214 9.633 14.288 22.467 14.288 36.142v24.742a17.057 17.095 0 0 1-17.058 17.095H259.57v6.988c0 7.586 7.232 18.868 27.157 18.868 7.83 0 19.27-2.212 23.518-4.05a17.058 17.096 0 1 1 13.488 31.407c-9.034 3.898-24.942 6.833-37.01 6.833zm-27.156-94.237h48.6v-7.646c0-4.454-1.753-18.985-24.3-18.985s-24.3 14.531-24.3 18.985v7.646z"/>
      <path d="M478.863 165.97a17.057 17.095 0 0 0-23.965-2.747c-2.826 2.25-5.793 4.118-13.49 4.118-9.977 0-20.663-7.785-20.663-19.37V83.77h26.724a17.057 17.095 0 0 0 0-34.191h-26.724v-32.48a17.06 17.098 0 0 0-34.114 0v32.48h-14.215a17.057 17.095 0 0 0 0 34.19h14.215v64.202c0 29.531 24.57 53.558 54.774 53.558 13.993 0 24.7-3.56 34.718-11.54a17.055 17.093 0 0 0 2.74-24.02z"/>
      <path d="M549.421 46.513c-15.167 0-29.244 5.324-41.834 15.819a17.057 17.095 0 0 0 21.818 26.284c6.474-5.397 12.833-7.912 20.013-7.912 19.924 0 27.156 11.281 27.156 18.857v1.868c-29.317-1.911-51.448 3.157-65.92 15.138-10.555 8.739-16.46 20.64-17.073 34.41-.68 15.19 5.682 29.36 17.452 38.872 9.523 7.698 21.574 11.69 34.531 11.69 5.672 0 11.519-.764 17.399-2.32 6.615-1.75 12.213-4.497 16.924-7.88a17.025 17.063 0 0 0 13.699 6.953h.008a17.057 17.095 0 0 0 17.057-17.087l.04-81.636c0-25.72-21.473-53.056-61.27-53.056zm4.825 119.649c-8.573 2.274-16.725 1.179-21.801-2.925-2.318-1.876-5.03-5.256-4.785-10.728.179-4.017 1.68-7.061 4.723-9.58 3.256-2.694 12.073-7.716 32.557-7.716 3.515 0 7.386.154 11.618.485l-.005 16.586c-.268 4.99-8.757 10.289-22.307 13.878z"/>
    </g>
    <use href="#dots" x="639.55" y="40.406" width="167.44" height="167.44" />
    <g class="text" fill="#43424A" style="fill: var(--text-color, #43424A)">
      <path d="M892.535 201.531c-38.447 0-58.563-26.747-58.563-53.172V99.648c0-26.422 20.116-53.173 58.563-53.173 22.118 0 39.946 8.745 50.212 24.623a17.057 17.095 0 0 1-5.046 23.641 17.05 17.087 0 0 1-23.586-5.052c-4.82-7.454-14.4-9.021-21.58-9.021-22.688 0-24.449 14.528-24.449 18.98v48.71c0 4.456 1.761 18.985 24.45 18.985 7.18 0 16.754-1.57 21.579-9.024a17.052 17.09 0 0 1 23.586-5.055 17.063 17.1 0 0 1 5.046 23.644c-10.266 15.881-28.094 24.625-50.212 24.625z"/>
      <path d="M1026.282 46.475c-12.076 0-22.34 2.643-30.742 7.08a16.984 17.022 0 0 0-10.764-3.84A17.057 17.095 0 0 0 967.72 66.81v164.095a17.059 17.097 0 0 0 34.118 0v-33.621c7.083 2.7 15.231 4.247 24.446 4.247 38.45 0 58.56-26.745 58.56-53.172V99.648c-.002-26.422-20.116-53.173-58.563-53.173zm24.446 101.881c0 4.456-1.758 18.985-24.446 18.985-22.686 0-24.446-14.529-24.446-18.985v-48.71c0-4.454 1.76-18.98 24.446-18.98 22.688 0 24.446 14.528 24.446 18.98v48.71z"/>
      <path d="M1161.373 46.513c-15.17 0-29.244 5.324-41.836 15.819a17.055 17.093 0 0 0-2.202 24.075 17.057 17.095 0 0 0 24.024 2.209c6.475-5.397 12.83-7.912 20.014-7.912 19.921 0 27.156 11.281 27.156 18.857v1.868c-29.323-1.911-51.451 3.157-65.923 15.138-10.556 8.739-16.46 20.64-17.079 34.41-.676 15.19 5.685 29.36 17.455 38.872 9.52 7.698 21.577 11.69 34.531 11.69 5.677 0 11.519-.764 17.399-2.32 6.618-1.75 12.213-4.497 16.927-7.88a17.011 17.05 0 0 0 13.696 6.953h.013a17.066 17.103 0 0 0 17.058-17.087l.043-81.636c-.005-25.72-21.48-53.056-61.276-53.056zm4.822 119.649c-8.576 2.274-16.725 1.179-21.804-2.925-2.315-1.876-5.03-5.256-4.784-10.728.181-4.017 1.682-7.061 4.722-9.58 3.25-2.694 12.076-7.716 32.56-7.716 3.513 0 7.38.154 11.618.485l-.008 16.586c-.27 4.99-8.754 10.289-22.304 13.878z"/>
      <path d="M1309.434 46.473c-12.078 0-22.342 2.64-30.742 7.077a17.06 17.098 0 0 0-27.821 13.257v114.384a17.06 17.098 0 1 0 34.12 0V99.645c0-4.453 1.758-18.982 24.446-18.982 22.683 0 24.446 14.529 24.446 18.982v81.55a17.059 17.097 0 1 0 34.118 0V99.647c-.006-26.428-20.116-53.175-58.567-53.175z"/>
    </g>
  </symbol>
  <symbol id="logo-white">
    <use href="#logo" style="--text-color: #FFFFFF" />
  </symbol>
  <use href="#logo" />
</svg>
