<?xml version="1.0" encoding="utf-8"?>
<!-- Generator: Adobe Illustrator 23.0.1, SVG Export Plug-In . SVG Version: 6.00 Build 0)  -->
<svg version="1.2" baseProfile="tiny" id="Layer_1" xmlns="http://www.w3.org/2000/svg" xmlns:xlink="http://www.w3.org/1999/xlink"
	 x="0px" y="0px" viewBox="0 0 194.34 53.67" xml:space="preserve">
<g>
	<g>
		<path fill="#4FF3B8" d="M1.86,48.2c2.3,0.84,7.57,1.62,11.44,2.29c0.64,0.11,1.24-0.32,1.36-0.97l5.39-35.71
			c0.14-0.76-0.37-1.49-1.13-1.61L8.14,9.97c-0.39-0.06-0.74,0.22-0.79,0.61C5.68,23.36,2.75,34.13,0.92,46.6
			C0.82,47.29,1.21,47.96,1.86,48.2z"/>
		<path fill="#4FF3B8" d="M31.14,34.54c-2.21-6.25-6.17-9.54-12.63-11.59c-7.92-2.52-16.28,6.98-15.96,14.53S7.61,49.73,15.74,51.5
			C23.85,53.26,34.19,43.15,31.14,34.54z"/>
	</g>
	<g>
		<g>
			<g>
				<path fill="#00CB8D" d="M39.02,35.73c-0.02-0.52-0.25-1.01-0.65-1.34L23.91,22.4c-0.15-0.12-0.32-0.22-0.49-0.29l4.27-13.36
					c0.14-0.45-0.1-0.92-0.55-1.07L14.2,3.56c-0.09-0.03-0.17-0.04-0.26-0.04c-0.36,0-0.69,0.23-0.81,0.59L0.04,45.13
					c-0.14,0.45,0.1,0.92,0.55,1.07l12.93,4.13c0.09,0.03,0.17,0.04,0.26,0.04c0.36,0,0.69-0.23,0.81-0.59l0.83-2.59
					c2.52,2.13,5.77,3.4,9.22,3.4c0.15,0,0.3,0,0.44-0.01C33.16,50.33,39.29,43.57,39.02,35.73z M12.57,47.17L3.2,44.18L15.16,6.72
					l9.36,2.99l-4.07,12.77c-6.67,2.03-11.12,8.73-9.98,15.99c0.38,2.43,1.38,4.64,2.81,6.49L12.57,47.17z M19.38,25.82l-5.04,15.79
					c-0.58-1.1-0.99-2.3-1.19-3.57c-0.48-3.1,0.26-6.19,2.1-8.7C16.36,27.84,17.77,26.64,19.38,25.82z M33.16,44.18
					c-2.13,2.28-5.03,3.58-8.16,3.68c-0.12,0-0.24,0-0.36,0c-3.2,0-6.18-1.35-8.31-3.53l6.23-19.52l13.75,11.39
					C36.31,39.17,35.21,41.99,33.16,44.18z"/>
			</g>
		</g>
	</g>
	<g>
		<path fill="#00CB8D" d="M65.67,27.04c-0.26-0.29-0.26-0.4,0-0.66l1.03-1.03c1.15-1.15,1.37-1.98,1.37-3.11v-0.81
			c0-1.13-0.22-1.96-1.37-3.11l-1.26-1.26c-1.11-1.11-1.96-1.46-3.49-1.46H51.88c-0.49,0-0.76,0.28-0.76,0.79v21.3
			c0,0.51,0.27,0.79,0.76,0.79H62.3c1.51,0,2.35-0.36,3.46-1.46l1.26-1.26c1.15-1.15,1.37-1.98,1.37-3.11v-1.16
			c0-1.32-0.33-2.07-1.37-3.11L65.67,27.04z M65,20.71c0.03,0.06,0.05,0.13,0.08,0.19c0.02,0.07,0.04,0.14,0.05,0.22
			c0.03,0.15,0.04,0.33,0.05,0.54c0-0.21-0.02-0.38-0.05-0.54c-0.01-0.08-0.03-0.15-0.05-0.22C65.06,20.84,65.03,20.77,65,20.71
			c-0.1-0.22-0.26-0.41-0.5-0.63l-1.19-1.23c-0.52-0.52-0.97-0.68-1.65-0.68h-7.29c-0.08,0-0.15,0.01-0.2,0.04
			c-0.08,0.05-0.12,0.14-0.12,0.28v0c0-0.14,0.04-0.23,0.12-0.28c0.05-0.03,0.12-0.04,0.2-0.04h7.29c0.68,0,1.13,0.16,1.65,0.68
			l1.19,1.23C64.74,20.31,64.9,20.5,65,20.71z M64.29,16.32c0.15,0.09,0.3,0.2,0.44,0.31C64.59,16.51,64.44,16.41,64.29,16.32z
			 M65.46,26.39c-0.09,0.11-0.14,0.21-0.14,0.31C65.32,26.6,65.37,26.5,65.46,26.39z M65.35,32.28c0,0.85-0.12,1.15-0.63,1.63
			l-1.2,1.23c-0.47,0.47-0.87,0.63-1.54,0.63h-7.62c-0.14,0-0.17-0.03-0.17-0.17v-7.23c0-0.14,0.03-0.17,0.17-0.17h7.71
			c0.63,0,1.05,0.17,1.54,0.64l1.09,1.12c0.51,0.48,0.64,0.81,0.64,1.64V32.28z M65.03,22.11c0,0.85-0.12,1.15-0.63,1.63l-1.1,1.1
			c-0.46,0.49-0.87,0.67-1.54,0.67h-7.39c-0.14,0-0.17-0.03-0.17-0.17V18.5c0-0.14,0.03-0.17,0.17-0.17h7.29
			c0.67,0,1.07,0.17,1.54,0.63l1.19,1.22c0.52,0.49,0.64,0.78,0.64,1.64V22.11z M54.16,28.09c-0.07,0.04-0.1,0.1-0.12,0.2
			C54.06,28.2,54.1,28.13,54.16,28.09z M54.07,25.51c0.02,0.05,0.05,0.09,0.09,0.11C54.12,25.6,54.09,25.56,54.07,25.51z
			 M54.16,35.88c-0.05-0.03-0.08-0.07-0.1-0.13C54.08,35.81,54.11,35.86,54.16,35.88z M64.82,29.86c0.29,0.27,0.46,0.51,0.56,0.8
			C65.28,30.37,65.11,30.13,64.82,29.86z M66.96,24.86c0.27-0.31,0.47-0.61,0.62-0.9C67.43,24.25,67.23,24.54,66.96,24.86z
			 M67.73,23.6c0.04-0.12,0.07-0.24,0.1-0.36C67.8,23.36,67.77,23.48,67.73,23.6z M66.6,18.44l-1.26-1.26
			c-0.18-0.18-0.36-0.35-0.54-0.49c0.18,0.14,0.35,0.31,0.54,0.49L66.6,18.44z M65.66,36.93c-0.52,0.52-0.97,0.87-1.48,1.1
			c-0.13,0.06-0.26,0.1-0.4,0.15c-0.14,0.04-0.28,0.07-0.44,0.1c0.15-0.03,0.3-0.06,0.44-0.1c0.14-0.04,0.27-0.09,0.4-0.15
			C64.69,37.8,65.14,37.44,65.66,36.93l1.26-1.26L65.66,36.93z M68.15,30.49c0.07,0.31,0.09,0.64,0.09,1.01v1.16
			c0,0.58-0.06,1.06-0.26,1.54c-0.07,0.18-0.17,0.35-0.28,0.53c0.12-0.18,0.21-0.35,0.28-0.53c0.2-0.47,0.26-0.96,0.26-1.54v-1.16
			C68.24,31.13,68.22,30.8,68.15,30.49c-0.03-0.12-0.06-0.24-0.1-0.36C68.09,30.25,68.12,30.37,68.15,30.49z M67.85,29.69
			c-0.05-0.09-0.1-0.17-0.15-0.26C67.75,29.52,67.8,29.6,67.85,29.69z"/>
		<path fill="#00CB8D" d="M85.13,21.87h-1.26c-0.68,0-0.91,0.31-1.14,0.97L78.4,35.81c-0.02,0.05-0.03,0.07-0.04,0.07
			c-0.01,0-0.04-0.02-0.07-0.07l-4.32-12.97c-0.19-0.64-0.42-0.97-1.11-0.97h-1.32c-0.32,0-0.54,0.09-0.67,0.27
			c-0.13,0.19-0.14,0.46-0.02,0.8l5.62,16.3c0.15,0.5,0.15,0.59,0.03,0.94l-0.19,0.51c-0.05,0.16-0.13,0.27-0.29,0.43l-0.25,0.25
			c-0.18,0.16-0.33,0.25-1,0.25h-2.23c-0.53,0-0.83,0.29-0.83,0.79v1.1c0,0.51,0.3,0.79,0.83,0.79h2.65c1.22,0,2.01-0.34,2.91-1.24
			l0.45-0.45c0.45-0.45,0.81-0.99,1-1.51l6.29-18.17c0.12-0.33,0.11-0.6-0.03-0.79C85.69,21.96,85.46,21.87,85.13,21.87z
			 M78.36,36.03c0.04,0,0.08-0.01,0.11-0.04C78.44,36.02,78.4,36.03,78.36,36.03s-0.08-0.01-0.11-0.04
			C78.29,36.02,78.33,36.03,78.36,36.03z M73.83,22.89l3.24,9.73L73.83,22.89c-0.12-0.4-0.24-0.64-0.46-0.77
			C73.59,22.25,73.71,22.49,73.83,22.89z M76.66,39.36c0.03,0.11,0.05,0.2,0.06,0.27C76.71,39.56,76.69,39.47,76.66,39.36z
			 M71.87,43.51c0,0.1,0.01,0.2,0.04,0.28C71.88,43.71,71.87,43.62,71.87,43.51z M72,43.95c0.03,0.03,0.05,0.06,0.09,0.08
			C72.06,44.01,72.03,43.98,72,43.95z M72.18,44.09c0.06,0.03,0.13,0.05,0.2,0.06C72.31,44.13,72.24,44.11,72.18,44.09z
			 M75.19,44.16L75.19,44.16c0.61,0,1.11-0.09,1.55-0.28C76.3,44.07,75.8,44.16,75.19,44.16z M78.45,42.51L78,42.96L78.45,42.51
			c0.1-0.1,0.21-0.22,0.3-0.33C78.66,42.29,78.55,42.41,78.45,42.51z M78.89,42c0.09-0.12,0.17-0.24,0.25-0.37
			C79.06,41.76,78.98,41.88,78.89,42z"/>
		<path fill="#00CB8D" d="M100.02,21.87h-5.32c-0.14,0-0.17-0.03-0.17-0.17v-3.55c0-0.53-0.26-0.79-0.79-0.79h-1.45
			c-0.52,0-0.79,0.27-0.79,0.79v3.55c0,0.14-0.03,0.17-0.17,0.17h-2.07c-0.49,0-0.76,0.28-0.76,0.79v1.1c0,0.51,0.27,0.79,0.76,0.79
			h2.07c0.14,0,0.17,0.03,0.17,0.17v8.42c0,1.52,0.34,2.38,1.37,3.4l0.48,0.48c1.11,1.11,1.97,1.46,3.53,1.46h3.16
			c0.52,0,0.79-0.27,0.79-0.79v-1.1c0-0.54-0.26-0.8-0.79-0.8h-3.13c-0.61,0-0.99-0.15-1.38-0.54l-0.42-0.42
			c-0.46-0.46-0.57-0.75-0.57-1.48v-8.65c0-0.14,0.03-0.17,0.17-0.17h5.32c0.52,0,0.79-0.27,0.79-0.79v-1.1
			C100.81,22.14,100.54,21.87,100.02,21.87z M94.69,22.02c-0.11,0-0.19-0.02-0.25-0.08C94.5,21.99,94.58,22.02,94.69,22.02z
			 M88.77,24.24c0,0,0.01,0.01,0.01,0.01C88.78,24.25,88.78,24.24,88.77,24.24z M89.07,24.39c-0.06-0.01-0.12-0.03-0.17-0.06
			C88.94,24.36,89,24.38,89.07,24.39z M100.66,36.6v1.1c0,0.31-0.11,0.52-0.35,0.6c0.25-0.08,0.35-0.29,0.35-0.6L100.66,36.6
			c0-0.34-0.11-0.53-0.35-0.61C100.55,36.07,100.66,36.27,100.66,36.6z M96.89,35.96L96.89,35.96c-0.24,0-0.45-0.02-0.64-0.07
			C96.43,35.94,96.64,35.96,96.89,35.96z M94.98,34.96l0.42,0.42L94.98,34.96c-0.12-0.12-0.22-0.23-0.3-0.34
			C94.76,34.73,94.86,34.84,94.98,34.96z M94.45,24.48c0.05-0.05,0.13-0.08,0.25-0.08C94.58,24.41,94.5,24.43,94.45,24.48z
			 M100.66,23.76c0,0.37-0.15,0.59-0.49,0.63C100.51,24.35,100.66,24.13,100.66,23.76l0-1.1c0-0.25-0.07-0.43-0.23-0.54
			c0.15,0.11,0.23,0.29,0.23,0.54V23.76z"/>
		<path fill="#00CB8D" d="M115.65,23.33c-1.12-1.12-1.94-1.46-3.49-1.46h-3.39c-1.56,0-2.37,0.34-3.49,1.46l-0.71,0.71
			c-1.02,1.02-1.37,1.88-1.37,3.4v5.49c0,1.52,0.34,2.38,1.37,3.4l0.71,0.71c1.12,1.12,1.94,1.46,3.49,1.46h7.68
			c0.51,0,0.79-0.29,0.79-0.79v-1.1c0-0.51-0.29-0.8-0.79-0.8h-7.49c-0.58,0-1.03-0.19-1.44-0.6l-0.65-0.65
			c-0.5-0.5-0.63-0.86-0.63-1.67V31.6c0-0.14,0.03-0.17,0.17-0.17h10.52c0.53,0,0.79-0.26,0.79-0.79v-3.2c0-1.52-0.34-2.38-1.37-3.4
			L115.65,23.33z M106.09,27.47c0-0.87,0.16-1.26,0.68-1.77l0.65-0.65c0.17-0.17,0.34-0.3,0.53-0.4c-0.18,0.1-0.36,0.23-0.53,0.4
			l-0.65,0.65C106.25,26.21,106.09,26.6,106.09,27.47l0,1.13c0,0.14,0.04,0.23,0.12,0.28c-0.08-0.05-0.12-0.14-0.12-0.28V27.47z
			 M114.11,25.8c0.5,0.5,0.63,0.86,0.63,1.67v1.13c0,0.14-0.03,0.17-0.17,0.17h-8.16c-0.14,0-0.17-0.03-0.17-0.17v-1.13
			c0-0.81,0.14-1.17,0.63-1.67l0.65-0.65c0.42-0.42,0.86-0.6,1.44-0.6h3.07c0.6,0,1.02,0.17,1.44,0.6L114.11,25.8z M113.12,24.69
			c0.15,0.09,0.3,0.21,0.45,0.36l0.65,0.65l-0.65-0.65C113.42,24.9,113.28,24.79,113.12,24.69z M114.66,26.26
			c0.17,0.32,0.24,0.67,0.24,1.22v0C114.9,26.93,114.83,26.57,114.66,26.26z M106.41,28.92L106.41,28.92c-0.06,0-0.1-0.01-0.15-0.02
			C106.3,28.92,106.35,28.92,106.41,28.92z M104.49,36.04c0.06,0.06,0.11,0.12,0.17,0.18l0.35,0.35l-0.35-0.35
			C104.6,36.16,104.55,36.1,104.49,36.04z M116.44,38.35c0.1,0,0.2-0.01,0.28-0.04C116.64,38.33,116.55,38.35,116.44,38.35z
			 M117,38.09c-0.04,0.07-0.1,0.12-0.16,0.16C116.9,38.21,116.96,38.16,117,38.09c0.04-0.07,0.07-0.15,0.08-0.24
			C117.07,37.94,117.04,38.02,117,38.09z M117,36.22c0.04,0.07,0.07,0.15,0.08,0.24C117.07,36.36,117.04,36.28,117,36.22
			c-0.04-0.07-0.1-0.12-0.16-0.16C116.9,36.09,116.96,36.15,117,36.22z M116.72,36c-0.08-0.03-0.17-0.04-0.28-0.04
			C116.55,35.96,116.64,35.97,116.72,36z M106.76,34.67l0.65,0.65L106.76,34.67c-0.52-0.52-0.68-0.9-0.68-1.77V31.6
			c0-0.14,0.04-0.23,0.12-0.28c-0.08,0.05-0.12,0.14-0.12,0.28v1.29C106.09,33.76,106.25,34.15,106.76,34.67z M106.26,31.3
			c0.04-0.01,0.09-0.02,0.15-0.02h0C106.35,31.28,106.3,31.29,106.26,31.3z M117.57,27.44v3.2c0,0.34-0.11,0.53-0.35,0.61
			c0.25-0.08,0.35-0.27,0.35-0.61L117.57,27.44c0-0.91-0.13-1.58-0.46-2.19c-0.2-0.37-0.48-0.72-0.86-1.1
			c0.38,0.38,0.65,0.73,0.86,1.1C117.45,25.86,117.57,26.53,117.57,27.44z"/>
		<path fill="#00CB8D" d="M143.58,23.33c-1.11-1.11-1.96-1.46-3.53-1.46h-0.84c-1.54,0-2.26,0.46-3.14,1.37l-1.58,1.55
			c-0.05,0.05-0.07,0.05-0.07,0.05c0,0-0.02,0-0.07-0.05l-1.49-1.45c-1.11-1.11-1.96-1.46-3.49-1.46h-0.71
			c-1.54,0-2.26,0.46-3.14,1.37l-1.26,1.26v-1.83c0-0.51-0.3-0.79-0.83-0.79h-1.42c-0.49,0-0.76,0.28-0.76,0.79V37.7
			c0,0.51,0.27,0.79,0.76,0.79h1.45c0.51,0,0.79-0.29,0.79-0.79v-9.2c0-0.74,0.11-0.96,0.54-1.38l1.97-1.97
			c0.39-0.42,0.83-0.6,1.44-0.6h0.97c0.61,0,1.05,0.18,1.48,0.6l0.64,0.65c0.44,0.47,0.63,0.82,0.63,1.67V37.7
			c0,0.51,0.29,0.79,0.79,0.79h1.42c0.52,0,0.79-0.27,0.79-0.79v-9.33c0-0.72,0.1-0.97,0.57-1.41l1.81-1.81
			c0.39-0.42,0.83-0.6,1.44-0.6h1.1c0.61,0,1.05,0.18,1.48,0.6l0.65,0.65c0.5,0.5,0.63,0.86,0.63,1.67V37.7
			c0,0.51,0.29,0.79,0.8,0.79h1.42c0.53,0,0.83-0.29,0.83-0.79V27.44c0-1.52-0.34-2.38-1.37-3.4L143.58,23.33z M124.12,24.63
			c0-0.02-0.01-0.04-0.01-0.06C124.11,24.59,124.12,24.61,124.12,24.63z M124.34,24.63c-0.02,0.02-0.05,0.04-0.07,0.05
			C124.29,24.67,124.31,24.66,124.34,24.63z M124.26,24.69c-0.02,0.01-0.04,0.02-0.06,0.02C124.22,24.71,124.24,24.7,124.26,24.69z
			 M124.19,24.71c-0.01,0-0.01,0-0.02-0.01C124.18,24.71,124.18,24.71,124.19,24.71z M124.16,24.7c-0.01,0-0.01-0.01-0.02-0.02
			C124.15,24.69,124.15,24.69,124.16,24.7z M124.13,24.67c0-0.01-0.01-0.02-0.01-0.03C124.13,24.65,124.13,24.66,124.13,24.67z
			 M124.2,27.72c-0.02,0.06-0.03,0.12-0.05,0.18c-0.01,0.07-0.02,0.13-0.03,0.21c-0.01,0.11-0.01,0.24-0.01,0.39v0
			c0-0.15,0-0.27,0.01-0.39c0.01-0.08,0.02-0.15,0.03-0.21C124.17,27.84,124.18,27.78,124.2,27.72c0.02-0.06,0.04-0.11,0.07-0.16
			C124.24,27.61,124.22,27.67,124.2,27.72z M124.41,27.33c-0.04,0.05-0.07,0.1-0.1,0.15C124.34,27.43,124.37,27.38,124.41,27.33
			c0.04-0.05,0.08-0.1,0.13-0.15C124.49,27.23,124.45,27.28,124.41,27.33z M126.66,25.05l-1.97,1.97L126.66,25.05
			c0.16-0.17,0.32-0.3,0.5-0.4C126.99,24.75,126.82,24.88,126.66,25.05z M130.76,25.05c-0.17-0.17-0.34-0.3-0.53-0.4
			C130.42,24.75,130.59,24.88,130.76,25.05l0.65,0.65L130.76,25.05z M131.83,26.26c0.17,0.32,0.25,0.67,0.25,1.22v0
			C132.08,26.93,132.01,26.57,131.83,26.26z M137.22,25.05l-1.81,1.81L137.22,25.05c0.16-0.17,0.32-0.3,0.5-0.4
			C137.54,24.75,137.37,24.88,137.22,25.05z M141.44,25.05c-0.17-0.17-0.34-0.3-0.53-0.4C141.1,24.75,141.27,24.88,141.44,25.05
			l0.65,0.65L141.44,25.05z M142.53,26.26c0.17,0.32,0.24,0.67,0.24,1.22v0C142.77,26.93,142.7,26.57,142.53,26.26z"/>
		<path fill="#00CB8D" d="M162.82,21.87h-1.42c-0.53,0-0.83,0.29-0.83,0.79v1.83l-1.23-1.26c-0.91-0.91-1.65-1.37-3.17-1.37h-1.9
			c-1.56,0-2.37,0.34-3.49,1.46l-0.71,0.71c-1.02,1.02-1.37,1.88-1.37,3.4v5.49c0,1.52,0.34,2.38,1.37,3.4l0.71,0.71
			c1.12,1.12,1.94,1.46,3.49,1.46h1.9c1.53,0,2.26-0.46,3.17-1.37l1.23-1.23v1.8c0,0.51,0.3,0.79,0.83,0.79h1.42
			c0.49,0,0.76-0.28,0.76-0.79V22.66C163.59,22.15,163.32,21.87,162.82,21.87z M160.64,27.72c0.02,0.06,0.03,0.12,0.05,0.18
			c0.01,0.07,0.02,0.13,0.03,0.21c0.01,0.11,0.01,0.24,0.01,0.39v0c0-0.15,0-0.27-0.01-0.39c-0.01-0.08-0.02-0.15-0.03-0.21
			C160.67,27.84,160.65,27.78,160.64,27.72c-0.02-0.06-0.04-0.11-0.07-0.16C160.6,27.61,160.62,27.67,160.64,27.72z M160.58,24.69
			c0.02,0.01,0.04,0.02,0.06,0.02C160.62,24.71,160.6,24.7,160.58,24.69z M160.65,24.71c0.01,0,0.01,0,0.02-0.01
			C160.66,24.71,160.66,24.71,160.65,24.71z M160.68,24.7c0.01,0,0.01-0.01,0.02-0.02C160.69,24.69,160.69,24.69,160.68,24.7z
			 M160.71,24.67c0-0.01,0.01-0.02,0.01-0.03C160.71,24.65,160.71,24.66,160.71,24.67z M156.63,35.81h-2.16
			c-0.58,0-1.03-0.19-1.44-0.6l-0.65-0.65c-0.5-0.5-0.63-0.86-0.63-1.67v-5.42c0-0.81,0.14-1.17,0.63-1.67l0.65-0.65
			c0.42-0.42,0.86-0.6,1.44-0.6h2.16c0.61,0,1.06,0.18,1.44,0.6l1.97,1.97c0.42,0.42,0.54,0.64,0.54,1.38v3.36
			c0,0.75-0.13,1-0.54,1.41l-1.97,1.94C157.68,35.62,157.24,35.81,156.63,35.81z M151.59,27.47L151.59,27.47
			c0-0.54,0.06-0.9,0.24-1.22C151.66,26.57,151.59,26.93,151.59,27.47z M160.43,27.33c-0.04-0.05-0.08-0.1-0.13-0.15
			C160.35,27.23,160.39,27.28,160.43,27.33s0.07,0.1,0.1,0.15C160.5,27.43,160.46,27.38,160.43,27.33z M160.15,27.02l-1.97-1.97
			c-0.16-0.17-0.32-0.3-0.5-0.4c0.18,0.1,0.35,0.23,0.5,0.4L160.15,27.02z M152.92,25.05l-0.65,0.65L152.92,25.05
			c0.17-0.17,0.34-0.3,0.53-0.4C153.26,24.75,153.09,24.88,152.92,25.05z M160.64,35.69c-0.02,0-0.04,0.01-0.06,0.02
			C160.6,35.69,160.62,35.69,160.64,35.69z M160.67,35.69c-0.01,0-0.01,0-0.02-0.01C160.66,35.69,160.66,35.69,160.67,35.69z
			 M160.7,35.72c0-0.01-0.01-0.01-0.02-0.02C160.69,35.7,160.69,35.71,160.7,35.72z M160.73,35.83c0-0.02,0-0.04-0.01-0.06
			C160.72,35.79,160.73,35.81,160.73,35.83z M160.72,35.76c0-0.01-0.01-0.02-0.01-0.03C160.71,35.74,160.71,35.75,160.72,35.76z
			 M160.72,24.63c0-0.02,0.01-0.04,0.01-0.06C160.73,24.59,160.72,24.61,160.72,24.63z M160.57,24.69
			c-0.02-0.01-0.04-0.03-0.07-0.05C160.52,24.66,160.55,24.67,160.57,24.69z M150.17,36.22c-0.13-0.13-0.24-0.25-0.34-0.37
			C149.93,35.97,150.05,36.09,150.17,36.22l0.71,0.71L150.17,36.22z M160.57,35.71c-0.02,0.01-0.04,0.03-0.07,0.05
			C160.52,35.74,160.55,35.72,160.57,35.71z"/>
		<path fill="#00CB8D" d="M176.86,21.87h-1.97c-1.54,0-2.26,0.46-3.14,1.37l-1.26,1.26v-1.83c0-0.51-0.3-0.79-0.83-0.79h-1.42
			c-0.49,0-0.76,0.28-0.76,0.79V37.7c0,0.51,0.27,0.79,0.76,0.79h1.45c0.51,0,0.79-0.29,0.79-0.79v-9.2c0-0.74,0.11-0.96,0.54-1.38
			l1.87-1.91c0.42-0.42,0.86-0.6,1.47-0.6h2.49c0.53,0,0.79-0.28,0.79-0.83v-1.13C177.65,22.14,177.38,21.87,176.86,21.87z
			 M170.34,24.63c0-0.02-0.01-0.04-0.01-0.06C170.34,24.59,170.34,24.61,170.34,24.63z M170.56,24.63
			c-0.02,0.02-0.05,0.04-0.07,0.05C170.51,24.67,170.54,24.66,170.56,24.63z M170.48,24.69c-0.02,0.01-0.04,0.02-0.06,0.02
			C170.44,24.71,170.46,24.7,170.48,24.69z M170.41,24.71c-0.01,0-0.01,0-0.02-0.01C170.4,24.71,170.41,24.71,170.41,24.71z
			 M170.38,24.7c-0.01,0-0.01-0.01-0.02-0.02C170.37,24.69,170.38,24.69,170.38,24.7z M170.36,24.67c0-0.01-0.01-0.02-0.01-0.03
			C170.35,24.65,170.35,24.66,170.36,24.67z M170.43,27.72c-0.02,0.06-0.03,0.12-0.05,0.18s-0.02,0.13-0.03,0.21
			c-0.01,0.11-0.01,0.24-0.01,0.39v0c0-0.15,0-0.27,0.01-0.39c0.01-0.08,0.02-0.15,0.03-0.21
			C170.39,27.84,170.41,27.78,170.43,27.72c0.02-0.06,0.04-0.11,0.07-0.16C170.47,27.61,170.45,27.67,170.43,27.72z M170.64,27.33
			c-0.04,0.05-0.07,0.1-0.1,0.15C170.56,27.43,170.6,27.38,170.64,27.33c0.04-0.05,0.08-0.1,0.13-0.15
			C170.72,27.23,170.67,27.28,170.64,27.33z"/>
		<path fill="#00CB8D" d="M194.19,37.34l-5.3-8.69c-0.18-0.26-0.14-0.37-0.02-0.49l4.72-5.07c0.24-0.25,0.31-0.57,0.2-0.83
			c-0.11-0.25-0.36-0.39-0.69-0.39h-1.26c-0.65,0-0.98,0.18-1.56,0.82l-6.97,7.45c-0.02,0.02-0.04,0.03-0.05,0.03
			c0,0-0.01-0.02-0.01-0.06V16.4c0-0.51-0.29-0.79-0.79-0.79h-1.45c-0.52,0-0.79,0.27-0.79,0.79v21.3c0,0.52,0.27,0.79,0.79,0.79
			h1.45c0.51,0,0.79-0.29,0.79-0.79v-3.36c0-0.35,0.07-0.56,0.25-0.73l2.94-3.1l0,0l0,0c0.04-0.05,0.07-0.06,0.08-0.06
			c0.01,0,0.03,0.02,0.06,0.07l0,0.01l0,0.01l4.42,7.23c0.3,0.46,0.62,0.75,1.32,0.75h1.29c0.3,0,0.53-0.11,0.65-0.32
			C194.39,37.96,194.36,37.65,194.19,37.34z M186.64,30.36c-0.01-0.01-0.02-0.02-0.03-0.03C186.62,30.34,186.63,30.35,186.64,30.36z
			 M186.38,30.34c-0.01,0-0.01,0.01-0.02,0.01C186.37,30.35,186.37,30.35,186.38,30.34z M193.48,22.99l-4.71,5.07L193.48,22.99
			c0.05-0.05,0.09-0.11,0.12-0.16C193.56,22.88,193.52,22.93,193.48,22.99z M193.64,22.74c0.03-0.08,0.05-0.17,0.05-0.25
			C193.69,22.57,193.67,22.66,193.64,22.74z M183.32,30.31c-0.02,0.01-0.05,0.02-0.07,0.02C183.27,30.32,183.29,30.32,183.32,30.31z
			 M183.41,30.25c-0.02,0.02-0.05,0.04-0.07,0.05C183.36,30.28,183.38,30.27,183.41,30.25z M183.23,30.32c-0.02,0-0.03,0-0.04-0.01
			C183.2,30.32,183.22,30.32,183.23,30.32z M183.08,30.12c0,0.03,0,0.06,0.01,0.08C183.09,30.18,183.08,30.15,183.08,30.12z
			 M183.1,30.22c0.01,0.02,0.01,0.03,0.02,0.04C183.12,30.25,183.11,30.24,183.1,30.22z M183.17,30.3
			c-0.01-0.01-0.02-0.01-0.03-0.02C183.15,30.29,183.16,30.3,183.17,30.3z M183.14,33.88c0.02-0.07,0.05-0.13,0.09-0.19
			C183.2,33.74,183.17,33.81,183.14,33.88z M186.41,30.32c0.01,0,0.01-0.01,0.02-0.01C186.42,30.31,186.42,30.32,186.41,30.32z
			 M186.48,30.29c-0.01,0-0.01,0-0.02,0C186.47,30.3,186.48,30.3,186.48,30.29z M186.51,30.29c0.01,0,0.02,0,0.03,0.01
			C186.53,30.29,186.52,30.29,186.51,30.29z M186.56,30.3c0.01,0,0.02,0.01,0.03,0.02C186.58,30.31,186.57,30.31,186.56,30.3z
			 M186.66,30.38c0.01,0.02,0.03,0.04,0.04,0.06C186.69,30.42,186.67,30.39,186.66,30.38z M194.07,38.19
			c0.07-0.07,0.11-0.15,0.12-0.25C194.17,38.03,194.13,38.12,194.07,38.19z"/>
	</g>
</g>
</svg>
