<?xml version="1.0" encoding="UTF-8" standalone="no"?>
<svg
   xmlns:dc="http://purl.org/dc/elements/1.1/"
   xmlns:cc="http://creativecommons.org/ns#"
   xmlns:rdf="http://www.w3.org/1999/02/22-rdf-syntax-ns#"
   xmlns:svg="http://www.w3.org/2000/svg"
   xmlns="http://www.w3.org/2000/svg"
   xmlns:sodipodi="http://sodipodi.sourceforge.net/DTD/sodipodi-0.dtd"
   xmlns:inkscape="http://www.inkscape.org/namespaces/inkscape"
   id="Final"
   x="0"
   y="0"
   version="1.1"
   viewBox="0 0 749.37746 263.83006"
   xml:space="preserve"
   width="150px"
   height="54px"
   sodipodi:docname="deriv.svg"
   inkscape:version="0.92.5 (2060ec1f9f, 2020-04-08)"><metadata
     id="metadata11"><rdf:RDF><cc:Work
         rdf:about=""><dc:format>image/svg+xml</dc:format><dc:type
           rdf:resource="http://purl.org/dc/dcmitype/StillImage" /><dc:title></dc:title></cc:Work></rdf:RDF></metadata><defs
     id="defs9" /><sodipodi:namedview
     pagecolor="#ffffff"
     bordercolor="#666666"
     borderopacity="1"
     objecttolerance="10"
     gridtolerance="10"
     guidetolerance="10"
     inkscape:pageopacity="0"
     inkscape:pageshadow="2"
     inkscape:window-width="1920"
     inkscape:window-height="1043"
     id="namedview7"
     showgrid="false"
     fit-margin-left="30"
     fit-margin-right="30"
     fit-margin-top="30"
     fit-margin-bottom="30"
     inkscape:zoom="0.14458333"
     inkscape:cx="1009.7674"
     inkscape:cy="356.95462"
     inkscape:window-x="0"
     inkscape:window-y="0"
     inkscape:window-maximized="1"
     inkscape:current-layer="Final" /><style
     id="style2" /><path
     d="m 156.8218,18.755031 -12.46,70.66 h -43.25 c -40.35,0 -78.81,32.689999 -85.94,73.039999 l -3.02,17.17 c -7.0900001,40.35 19.83,73.04 60.17,73.04 h 36.07 c 29.41,0 57.42,-23.81 62.59,-53.21 l 33.22,-188.319999 z m -30.69,174.029999 c -1.59,9.08 -9.77,16.48 -18.85,16.48 h -21.91 c -18.14,0 -30.27,-14.72 -27.09,-32.89 l 1.89,-10.71 c 3.22,-18.14 20.52,-32.89 38.66,-32.89 h 37.89 z m 363.77,59.87 28.38,-160.999999 h 44.89 l -28.38,160.999999 h -44.92 z m 4.85,-159.139999 c -2.25,12.769999 -4.51,25.539999 -6.76,38.309999 -21.27,-6.61 -43.21,-4.5 -49.95,-3.16 -7.28,41.34 -14.57,82.69 -21.86,124.03 h -44.92 c 6.1,-34.59 26.94,-152.719999 26.94,-152.719999 14.61,-6.05 50.49,-18.33 96.55,-6.46 z m -182.01,-4.13 h -34.94 c -34.05,0 -66.51,27.579999 -72.51,61.629999 l -7.06,40.02 c -6,34.05 16.71,61.63 50.76,61.63 h 74.33 l 7.63,-43.27 h -69.86 c -11.34,0 -18.93,-9.18 -16.91,-20.56 l 0.23,-1.36 h 112.62 l 6.43,-36.47 c 6,-34.05 -16.71,-61.629999 -50.76,-61.629999 h 0.04 z m 5.67,58.179999 -0.26,2.32 h -66.97 l 0.36,-2.06 c 2.02,-11.34 12.37,-21.32 23.74,-21.32 h 26.16 c 11.24,0.01 18.83,9.82 16.97,21.06 z m 374.99,-55.909999 h 44.92 c -15.3,40.689999 -50.37,109.889999 -84.34,160.999999 h -44.92 c -15.59,-48.64 -25.66,-116.4 -27.58,-160.999999 h 44.91 c 0.81,14.549999 7.32,68.499999 14.75,106.189999 20.38,-36.67 42.85,-84.78 52.22,-106.189999 z"
     id="path4"
     inkscape:connector-curvature="0"
     style="fill:#ff444f" /></svg>
