<svg xmlns="http://www.w3.org/2000/svg" width="1249.587" height="271.427"><path d="M440.803 46.571v25.496h-82.924v53.219H430.9v25.496h-73.021v74.013h-29.457V46.571h112.381m55.372 158.668c9.901 0 21.537-2.476 30.695-7.179v-31.436c-7.92-1.485-14.109-2.228-25-2.228-20.299 0-30.695 7.921-30.695 21.04 0 13.368 8.911 19.803 25 19.803zm64.36 18.069v1.487h-25.744c-1.239-2.476-2.228-4.951-2.969-7.427-11.14 5.694-26.983 9.901-40.101 9.901-29.952 0-47.775-14.852-47.775-40.596 0-25.248 22.031-41.832 55.943-41.832 11.139 0 19.308.99 26.981 2.228v-3.713c0-18.565-11.14-27.724-31.188-27.724-12.129 0-25.248 1.98-38.368 6.435l-7.18-20.544c16.832-6.189 32.428-9.405 48.517-9.405 21.535 0 34.16 5.445 42.823 13.86 8.912 8.912 12.873 21.783 12.873 37.378v40.843c0 12.871 1.732 27.23 6.188 39.109M677.493 99.79l-6.929 20.793c-13.12-3.961-26.24-5.941-39.359-5.941-15.841 0-23.268 5.941-23.268 14.109 0 8.416 5.693 13.367 26.485 18.565 36.884 9.159 50.497 20.546 50.497 40.1 0 26.486-19.804 39.853-55.943 39.853-17.575 0-35.647-2.971-52.479-8.664l7.18-20.792c14.604 4.455 31.436 7.179 45.299 7.179 19.803 0 28.467-5.198 28.467-14.853 0-7.92-5.941-13.117-30.943-19.06-33.912-8.168-45.545-20.05-45.545-40.843 0-22.031 17.823-38.119 50.249-38.119 16.337 0 31.684 2.721 46.288 7.672m104.334 122.035c-8.415 3.465-19.803 5.445-29.455 5.445-11.387 0-21.783-2.971-28.219-9.407-6.684-6.683-9.656-15.346-9.656-29.95v-69.804h-21.039V94.591h21.039V63.155h28.22v31.436h32.923v23.517h-32.923v66.09c0 13.367 5.941 19.308 17.328 19.308 5.941 0 12.376-1.239 17.575-2.723l4.207 21.04m214.288-82.675v85.647H967.65v-81.439c0-17.081-10.397-26.981-26.983-26.981-10.148 0-21.04 2.475-28.96 6.931v101.489h-28.22v-82.43c0-18.317-9.159-25.99-25-25.99-9.16 0-20.793 2.969-30.695 8.416v100.004h-28.468V94.591h26.736v8.912c11.633-6.931 27.475-11.385 42.575-11.385 13.12 0 25.497 4.703 34.408 12.871 13.119-7.921 30.444-12.871 47.277-12.871 14.357 0 26.488 4.703 33.913 12.376 8.416 8.416 11.88 19.06 11.88 34.655m74.36 66.09c9.901 0 21.535-2.476 30.693-7.179v-31.436c-7.92-1.485-14.109-2.228-25-2.228-20.297 0-30.693 7.921-30.693 21.04 0 13.368 8.909 19.803 25 19.803zm64.359 18.069v1.487h-25.743c-1.239-2.476-2.228-4.951-2.971-7.427-11.139 5.694-26.981 9.901-40.1 9.901-29.953 0-47.775-14.852-47.775-40.596 0-25.248 22.028-41.832 55.943-41.832 11.137 0 19.305.99 26.98 2.228v-3.713c0-18.565-11.139-27.724-31.187-27.724-12.131 0-25.249 1.98-38.369 6.435l-7.179-20.544c16.832-6.189 32.428-9.405 48.516-9.405 21.536 0 34.16 5.445 42.823 13.86 8.912 8.912 12.875 21.783 12.875 37.378v40.843c0 12.871 1.731 27.23 6.187 39.109m53.888-128.717v130.204h-28.468V94.591zm0-49.505v24.505h-28.468V45.086h28.468m60.866-3.467v183.176h-28.467V41.619h28.467" fill="#1f262f"/><path d="M225.214 76.764a106.64 106.64 0 0 1 17.68 58.952c0 59.196-47.988 107.182-107.182 107.182-36.986 0-69.594-18.733-88.859-47.228l-23.738 15.826c24.38 36.153 65.711 59.931 112.597 59.931 74.949 0 135.71-60.76 135.71-135.71 0-27.639-8.283-53.333-22.472-74.776l-23.736 15.824" fill="#6bbbea"/><path d="M28.528 135.716c0-59.196 47.987-107.184 107.184-107.184 37.412 0 70.329 19.18 89.502 48.232l23.736-15.824C224.661 24.23 183.024.005 135.712.005 60.759.005.001 60.765.001 135.716c0 28.065 8.522 54.14 23.114 75.78l23.738-15.826c-11.569-17.112-18.325-37.744-18.325-59.954" fill="#246cbe"/><path d="M71.196 178.725H195.69c2.505 0 4.536-2.03 4.536-4.536V92.706l-129.03 86.02" fill="#1f262f"/><path d="M135.712 135.715L71.196 92.706v86.02c.659-.44 1.16-.774 0 0h0l64.516-43.01" fill="#fab20b"/></svg>
