<svg viewBox="0 0 163 160" height="160pt" width="163pt" baseProfile="tiny-ps" version="1.2" xmlns="http://www.w3.org/2000/svg"><path d="M0 0h8.28C3.74 1.13 1.2 3.57 0 8.11V0z" fill="#fff"/><path d="M8.28 0h146.73c4.35 1.29 6.94 3.74 7.99 8.21V152.1c-1.37 4.42-3.59 6.55-8.01 7.9H62.58c9.13-10.34 18.19-20.74 27.32-31.07 2.36-2.66 4.8-5.11 6.67-8.16.03-1.58-.06-3.16-.12-4.74-12.74.27-25.11-1.1-37.41-4.41 15.05-3.45 30.24-8.89 43.23-17.37 3.09-1.82 5.86-4.22 9.02-5.9 10.43-.74 20.71-2.4 30.81-5.15-.43-1.51-.86-3.02-1.28-4.54-7.58 1.82-15.18 3.42-22.92 4.33 13.02-10.48 25.02-22.26 36-34.86-1.22-1.02-2.45-2.05-3.73-3.01-10.99 12.38-22.72 24.03-35.66 34.38-1.72 1.32-3.44 2.96-5.45 3.81-9.88.45-19.88-5.4-26.47-12.43-1.28.97-2.54 1.96-3.8 2.96 6.45 7.17 15 12.2 24.52 14-14.86 10.33-31.77 16.37-49.4 19.99-1.62.25-3.03.67-4.58-.13-8.15-3.85-15.1-9.79-19-18.04-1.98-4.04-2.84-8.35-3.18-12.8l-4.7-.27c.09 1.86.2 3.72.39 5.58-.33-1.54-.7-3.07-1.07-4.59C14.22 85.4 7.44 93.96 0 101.9V8.11C1.2 3.57 3.74 1.13 8.28 0z" fill="#8c8c91"/><path d="M155.01 0H163v8.21c-1.05-4.47-3.64-6.92-7.99-8.21zM99.48 27.71c5.13-1.35 10.78.68 13.58 5.24 1.97 3.12 1.98 6.67 1.01 10.13-2.39 8.65-6.99 17.19-10.64 25.39 2.53 2.06 5.16 3.99 7.7 6.03-3.58 1.56-7.15 3.14-10.78 4.59-2.71-2.05-5.4-4.13-8.07-6.24 3.35-1.49 6.72-2.91 10.09-4.34-3.59-7.37-7.55-14.85-10.3-22.57-.95-2.79-1.91-6.04-1.36-8.99.79-4.49 4.39-8.12 8.77-9.24z" fill="#fff"/><path d="M99.39 32.41c3.64-1.87 8.32-.25 9.8 3.6 1.32 3.36-.45 7.07-3.68 8.49-3.55 1.58-7.91-.03-9.39-3.65-1.35-3.22.2-6.92 3.27-8.44z" fill="#8c8c91"/><path d="M150.17 45.12c1.28.96 2.51 1.99 3.73 3.01-10.98 12.6-22.98 24.38-36 34.86 7.74-.91 15.34-2.51 22.92-4.33.42 1.52.85 3.03 1.28 4.54-10.1 2.75-20.38 4.41-30.81 5.15-3.16 1.68-5.93 4.08-9.02 5.9-12.99 8.48-28.18 13.92-43.23 17.37 12.3 3.31 24.67 4.68 37.41 4.41.06 1.58.15 3.16.12 4.74-13.72.27-28-1.05-41.07-5.41-2.41-.71-4.99-2.26-7.48-1.69-7.76 1.15-15.57 1.78-23.42 1.41.14-1.58.28-3.16.41-4.74 5.98.26 11.9-.2 17.84-.7-10.28-5.73-17.93-15.81-20.01-27.47-.19-1.86-.3-3.72-.39-5.58l4.7.27c.34 4.45 1.2 8.76 3.18 12.8 3.9 8.25 10.85 14.19 19 18.04 1.55.8 2.96.38 4.58.13 17.63-3.62 34.54-9.66 49.4-19.99-9.52-1.8-18.07-6.83-24.52-14 1.26-1 2.52-1.99 3.8-2.96 6.59 7.03 16.59 12.88 26.47 12.43 2.01-.85 3.73-2.49 5.45-3.81 12.94-10.35 24.67-22 35.66-34.38z" fill="#fff"/><path d="M62.44 57.53c2.64 3.12 3.15 7.14 2.09 11.01-2.36 8.84-7.02 17.46-10.75 25.8 2.54 2.02 5.14 3.96 7.68 5.98-3.55 1.6-7.13 3.12-10.72 4.63-2.74-2.05-5.44-4.16-8.15-6.26 3.33-1.46 6.7-2.86 10.04-4.31-3.93-8.57-9.11-17.47-11.39-26.63-1.15-4.63.57-9.31 4.38-12.13 5.08-3.81 12.76-3.04 16.82 1.91z" fill="#fff"/><path d="M49.45 58.46c3.28-1.87 7.67-.83 9.6 2.45 1.86 3.09.79 7.04-2.21 8.95-3.4 2.25-8.23 1.08-10.12-2.55-1.7-3.18-.37-7.12 2.73-8.85z" fill="#8c8c91"/><path d="M21.77 77.58c.37 1.52.74 3.05 1.07 4.59 2.08 11.66 9.73 21.74 20.01 27.47-5.94.5-11.86.96-17.84.7-.13 1.58-.27 3.16-.41 4.74 7.85.37 15.66-.26 23.42-1.41 2.49-.57 5.07.98 7.48 1.69 13.07 4.36 27.35 5.68 41.07 5.41-1.87 3.05-4.31 5.5-6.67 8.16-9.13 10.33-18.19 20.73-27.32 31.07H7.4c-2.55-.92-4.38-2.1-6.01-4.29-.49-.97-.95-1.94-1.39-2.92V101.9c7.44-7.94 14.22-16.5 21.77-24.32z" fill="#6e6e73"/><path d="M163 152.1v7.9h-8.01c4.42-1.35 6.64-3.48 8.01-7.9zM0 152.79c.44.98.9 1.95 1.39 2.92 1.63 2.19 3.46 3.37 6.01 4.29H0v-7.21z" fill="#fff"/></svg>
