<?xml version="1.0" encoding="UTF-8"?>
<!DOCTYPE svg PUBLIC "-//W3C//DTD SVG 1.1//EN" "http://www.w3.org/Graphics/SVG/1.1/DTD/svg11.dtd">
<!-- Creator: CorelDRAW X7 -->
<svg xmlns="http://www.w3.org/2000/svg" xml:space="preserve" width="10101" height="1220" version="1.1" style="shape-rendering:geometricPrecision; text-rendering:geometricPrecision; image-rendering:optimizeQuality; fill-rule:evenodd; clip-rule:evenodd"
viewBox="394 3641 10101 1220"
 xmlns:xlink="http://www.w3.org/1999/xlink">
 <defs>
  <style type="text/css">
   <![CDATA[
    .fil6 {fill:none}
    .fil3 {fill:#1A1A1A}
    .fil0 {fill:#1A1A1A}
    .fil4 {fill:#4F1854}
    .fil1 {fill:#76437B}
    .fil2 {fill:white}
    .fil5 {fill:#76437B;fill-rule:nonzero}
   ]]>
  </style>
     <clipPath id="id0">
      <path d="M9216 3552l1390 -2 0 1398 -1390 2 0 -1398z"/>
     </clipPath>
 </defs>
 <g id="Layer_x0020_1">
  <metadata id="CorelCorpID_0Corel-Layer"/>
  <g id="_1055468672">
   <g>
    <g style="clip-path:url(#id0)">
     
    </g>
   </g>
   <g>
    <g>
     <g>
      <path class="fil0" d="M9767 3846c-16,8 -32,17 -46,27 -8,-22 -21,-29 -38,-45 -17,-17 -21,-35 -42,-46 12,39 23,80 35,122 0,0 1,0 2,0 -3,2 -7,5 -9,7 -12,-19 -26,-23 -47,-36 -19,-13 -27,-29 -50,-37 18,36 36,73 55,110 1,0 1,0 2,-1 -1,1 -2,2 -2,2 -37,-19 -73,-38 -108,-56 7,26 51,75 72,98 -3,3 -5,6 -7,9 0,0 0,-1 0,-1 -42,-12 -83,-24 -122,-36 11,24 65,64 90,81 1,-1 3,-3 5,-5 -2,3 -4,6 -6,10 -48,-7 -95,-14 -141,-20 12,6 38,24 53,32 19,11 41,28 63,33 -2,4 -4,8 -6,12 -52,1 -103,3 -153,4 14,5 44,17 61,23 22,7 48,19 72,21 0,1 -1,2 -1,3 -54,10 -107,20 -159,29 47,8 94,16 143,24 -1,3 -1,6 -2,8 -56,19 -111,37 -165,55 51,0 104,0 157,-1 0,2 0,3 0,4 -49,23 -98,45 -147,68 -12,7 -8,5 -13,9 52,-8 105,-17 159,-26 0,3 1,6 1,9 -50,31 -99,62 -148,93 -12,10 -8,7 -13,12 55,-18 110,-36 167,-55 0,-3 -1,-7 -1,-10 1,3 2,7 3,11 -32,21 -141,113 -157,131 57,-27 115,-54 173,-82 0,2 1,3 2,5 -27,22 -135,137 -150,158 57,-36 113,-72 169,-109 -35,50 -110,134 -135,182 57,-46 114,-93 171,-140 -28,55 -97,154 -117,208 51,-55 102,-109 153,-162 -31,70 -62,141 -94,215 9,-17 125,-167 148,-202 1,0 2,0 2,1 -22,79 -46,160 -70,244 6,-19 106,-187 125,-226 0,0 0,0 0,0 -13,78 -26,159 -40,242 34,-80 67,-157 99,-233 1,0 2,0 3,0 -1,78 -2,159 -4,242 23,-83 45,-164 66,-242 11,75 21,152 32,233 12,-87 24,-170 35,-251 0,0 1,0 1,0 22,71 46,145 71,222 -2,-86 -3,-169 -4,-249 0,0 0,0 0,0 14,52 101,182 104,213 -15,-85 -28,-167 -41,-246 -9,5 -18,9 -26,13 2,-1 3,-2 5,-4 8,-4 16,-9 23,-14 23,47 133,157 140,185 -26,-74 -52,-146 -77,-215 24,13 49,39 71,58 27,24 54,48 87,71 -13,-37 -37,-67 -54,-97 -20,-36 -38,-62 -53,-91 28,8 60,29 87,45 31,18 62,36 99,51 -19,-33 -47,-56 -70,-82 -23,-28 -44,-48 -63,-71 65,22 131,44 201,67 -18,-13 -61,-52 -81,-67 -25,-18 -61,-52 -88,-64 0,-1 1,-3 2,-5 70,10 142,19 217,29 -20,-9 -69,-38 -92,-49 -27,-12 -66,-36 -95,-44 0,0 0,-1 0,-1 70,-1 141,-2 214,-3 -68,-20 -133,-40 -196,-59 0,-3 1,-6 2,-9 68,-12 138,-25 209,-37 -69,-8 -137,-16 -203,-23 0,-1 0,-3 0,-4 55,-13 178,-49 213,-70 -74,4 -145,8 -216,12 0,-3 0,-5 -1,-8 52,-21 167,-73 199,-98 -72,15 -142,30 -210,45 -1,-1 -1,-1 -1,-2 48,-20 140,-89 186,-118 -68,23 -136,46 -202,69 1,4 2,8 4,13 -3,-7 -6,-13 -9,-20 45,-27 123,-103 162,-135 -63,31 -125,62 -187,93 -1,-1 -2,-2 -3,-3 1,0 2,1 3,2 15,-14 20,-22 34,-36 31,-34 57,-48 99,-106 -56,35 -111,70 -166,105 0,1 1,1 1,1 -2,-2 -4,-4 -7,-5 13,-15 17,-22 28,-37 26,-37 48,-53 81,-113 -47,39 -95,78 -142,117 29,-53 58,-105 87,-157 -22,23 -44,47 -67,70 -28,27 -49,42 -67,72 0,0 1,0 1,0 -4,-1 -9,-3 -14,-4 2,0 5,0 7,0 22,-55 43,-109 64,-162 -18,25 -37,49 -55,73 -25,30 -43,47 -56,77 -1,0 -2,0 -2,0 9,-47 18,-92 27,-137 -24,42 -49,85 -74,128 4,1 9,2 13,3 -7,-1 -15,-2 -23,-2 2,-44 4,-87 7,-129 -19,43 -37,86 -56,130 1,0 2,0 3,0 -1,0 -3,0 -5,1 -2,-43 -4,-85 -7,-126 -18,29 -34,100 -44,134 -3,1 -5,1 -8,2 -9,-40 -18,-78 -26,-115 -15,29 -20,98 -25,131 -1,1 -1,1 -2,1 -3,-22 -12,-42 -18,-59 -7,-16 -13,-31 -18,-46 -4,-6 -4,-5 -8,-9 -1,44 -3,90 -4,136 5,-2 10,-5 15,-7 -9,5 -18,9 -26,14zm-244 640c-1,0 -1,-1 -2,-1 0,0 0,1 0,1 -2,-4 -3,-7 -5,-11 2,4 4,7 7,11zm31 46c0,-3 -1,-5 -1,-8 3,3 5,6 8,9 -2,-1 -4,-2 -6,-2 0,0 -1,1 -1,1zm42 31c0,1 0,2 -1,3 -1,-2 -1,-4 -2,-6 1,1 2,2 3,3zm476 -61c6,-4 12,-9 18,-14 -2,3 -3,6 -5,9 0,-1 -1,-2 -1,-3 -4,3 -8,6 -12,8zm67 -55c0,0 0,0 0,-1 -4,2 -8,4 -11,7 5,-5 9,-10 14,-15 -1,3 -2,6 -3,9zm4 -615c-1,0 -2,-1 -3,-1 0,0 -1,0 -1,-1 1,1 3,1 4,1 0,0 0,1 -1,1 0,0 1,0 1,0zm-420 39c15,-9 30,-18 46,-27 -6,-21 -20,-39 -28,-54 -9,-13 -18,-27 -26,-40 -5,-5 -5,-4 -10,-7 6,42 12,84 18,128z"/>
      <path class="fil0" d="M9905 3840c92,-15 177,8 236,58 63,54 100,139 94,244 -6,110 -60,219 -141,302 -82,85 -189,140 -298,145 -105,4 -188,-40 -238,-110 -47,-68 -64,-159 -42,-260 21,-95 74,-183 143,-250 69,-66 154,-114 246,-129z"/>
     </g>
     <path class="fil1" d="M9761 3841c-16,8 -31,17 -46,26 -8,-22 -20,-28 -38,-45 -16,-16 -21,-35 -41,-46 11,40 23,81 34,123 1,0 1,-1 2,-1 -3,3 -6,5 -9,8 -12,-19 -26,-24 -46,-37 -20,-12 -28,-29 -50,-37 17,36 36,73 54,111 1,0 2,-1 2,-1 -1,1 -1,1 -2,2 -37,-19 -73,-38 -107,-56 7,26 51,75 71,97 -2,3 -5,6 -7,9 0,0 0,0 0,0 -42,-13 -82,-25 -122,-37 12,24 66,64 90,82 2,-2 4,-4 5,-6 -2,4 -4,7 -6,10 -48,-7 -95,-13 -140,-19 12,6 38,23 53,32 19,11 40,27 62,33 -2,4 -4,7 -5,11 -53,2 -104,3 -154,5 14,4 44,16 62,22 22,7 47,20 71,21 0,1 0,3 -1,4 -54,10 -107,19 -159,28 47,8 95,16 143,25 0,3 -1,5 -1,8 -56,18 -111,37 -165,55 51,0 103,-1 156,-1 0,1 0,2 0,3 -49,23 -98,46 -146,68 -13,8 -8,5 -14,10 52,-9 105,-18 160,-27 0,3 0,6 0,9 -49,31 -98,63 -147,94 -12,9 -8,6 -13,11 54,-18 110,-36 166,-54 0,-4 0,-7 0,-11 0,4 1,7 2,11 -31,21 -141,113 -156,131 57,-27 114,-54 172,-81 1,1 1,3 2,4 -27,23 -135,138 -149,159 56,-37 112,-73 168,-110 -34,50 -109,134 -135,183 58,-47 115,-94 172,-140 -28,54 -98,153 -118,207 52,-54 103,-108 153,-162 -30,70 -61,142 -93,215 8,-17 124,-166 148,-202 0,1 1,1 2,1 -23,79 -46,160 -70,244 6,-18 106,-187 125,-225 0,0 0,0 0,0 -13,78 -27,158 -41,241 34,-79 67,-157 99,-233 2,0 3,0 4,0 -2,78 -3,159 -4,243 22,-83 44,-164 66,-243 10,75 20,153 32,233 12,-86 23,-170 35,-250 0,0 0,-1 0,-1 23,71 46,146 71,223 -1,-87 -2,-170 -4,-250 0,0 0,0 0,0 14,52 102,183 104,214 -14,-86 -28,-167 -41,-246 -9,4 -17,8 -26,12 2,-1 4,-2 6,-3 7,-5 15,-9 23,-14 22,47 132,156 140,185 -27,-75 -53,-147 -77,-216 23,14 48,39 70,59 27,24 54,48 88,70 -13,-37 -37,-66 -54,-97 -20,-36 -38,-62 -53,-90 27,7 59,28 86,44 31,18 62,36 100,51 -19,-32 -48,-56 -70,-82 -24,-28 -45,-48 -64,-70 65,21 132,44 201,66 -17,-13 -60,-51 -81,-67 -24,-18 -60,-51 -88,-63 1,-2 2,-4 3,-5 70,9 142,19 216,29 -20,-10 -69,-38 -92,-49 -26,-13 -66,-37 -95,-44 0,-1 0,-1 0,-2 70,-1 141,-2 215,-3 -68,-20 -133,-39 -197,-58 1,-3 2,-6 2,-10 69,-12 139,-25 210,-37 -70,-8 -137,-15 -203,-23 0,-1 0,-2 0,-3 54,-14 177,-50 212,-70 -73,4 -145,8 -215,11 0,-2 -1,-5 -1,-7 52,-21 167,-74 198,-98 -71,15 -141,30 -210,44 0,0 0,-1 0,-1 48,-21 140,-90 185,-118 -68,23 -135,46 -202,68 2,4 3,9 4,13 -3,-7 -6,-13 -9,-19 45,-28 123,-104 162,-136 -63,31 -125,62 -187,93 -1,-1 -1,-2 -2,-3 1,1 2,1 2,2 15,-14 21,-21 34,-35 32,-34 57,-49 99,-107 -55,36 -110,71 -165,106 0,0 0,0 0,1 -2,-2 -4,-4 -6,-6 12,-14 16,-22 27,-37 26,-36 49,-53 81,-113 -47,39 -94,78 -142,118 30,-54 59,-106 87,-157 -22,23 -44,46 -66,69 -29,28 -49,43 -67,72 0,1 0,1 0,1 -4,-2 -9,-3 -13,-5 2,0 4,0 7,0 21,-55 43,-109 63,-161 -18,24 -37,48 -55,73 -24,30 -42,47 -56,77 -1,-1 -1,-1 -2,-1 10,-46 19,-92 28,-136 -25,42 -50,85 -75,128 5,1 9,2 14,2 -8,-1 -15,-1 -23,-1 2,-44 4,-87 6,-129 -18,42 -37,85 -55,129 1,0 2,0 3,0 -2,1 -4,1 -5,1 -3,-43 -5,-84 -7,-125 -18,28 -35,99 -44,134 -3,0 -6,1 -8,1 -9,-39 -18,-77 -27,-115 -14,29 -20,99 -24,132 -1,0 -2,0 -2,1 -3,-22 -13,-43 -19,-59 -6,-16 -12,-32 -18,-47 -4,-6 -4,-5 -8,-8 -1,44 -2,89 -4,135 5,-2 10,-4 16,-6 -9,4 -18,9 -27,14zm-244 639c0,0 -1,0 -1,-1 0,1 -1,1 -1,1 -1,-3 -3,-7 -4,-11 2,4 4,8 6,11zm32 46c-1,-2 -1,-5 -2,-7 3,3 6,6 9,9 -2,-1 -4,-2 -7,-3 0,1 0,1 0,1zm42 31c-1,1 -1,2 -1,3 -1,-2 -2,-3 -2,-5 1,1 2,2 3,2zm476 -60c6,-5 12,-10 17,-15 -1,3 -3,6 -4,10 -1,-1 -1,-2 -1,-3 -4,2 -8,5 -12,8zm66 -56c0,0 0,0 0,0 -4,2 -7,4 -10,6 4,-5 9,-9 13,-14 -1,2 -2,5 -3,8zm4 -614c-1,-1 -2,-1 -3,-2 0,0 0,0 0,0 1,0 2,0 3,1 0,0 0,0 0,0 0,0 0,1 0,1zm-420 38c15,-9 31,-18 47,-27 -7,-20 -20,-38 -29,-53 -9,-14 -17,-28 -26,-41 -5,-5 -5,-4 -9,-6 5,41 11,83 17,127z"/>
     <path class="fil2" d="M9899 3835c92,-15 177,7 237,58 62,53 100,138 94,243 -7,111 -60,219 -141,303 -82,84 -189,139 -298,144 -105,5 -189,-39 -239,-110 -47,-67 -63,-159 -41,-259 21,-96 74,-184 143,-251 68,-66 153,-114 245,-128z"/>
    </g>
    <g>
     <g>
      <g>
       <path class="fil3" d="M9814 4015c-12,-31 -33,-85 -41,-113 -9,-27 -5,-27 61,10 66,36 193,110 260,150 67,39 72,45 76,57 3,13 4,31 -17,68 -22,36 -65,90 -104,132 -39,41 -73,70 -90,87 -17,17 -16,23 -13,31 3,8 8,19 13,31 5,13 9,28 14,38 4,11 7,18 4,22 -2,4 -10,5 -15,8 -5,2 -7,6 -13,-6 -6,-12 -17,-39 -23,-60 -7,-21 -9,-36 -4,-50 6,-13 19,-27 42,-49 23,-23 57,-56 83,-84 26,-27 45,-49 61,-70 15,-22 27,-42 34,-59 6,-17 7,-31 4,-41 -4,-10 -12,-16 -65,-24 -54,-9 -152,-20 -202,-30 -50,-9 -53,-16 -65,-48z"/>
       <path class="fil3" d="M9902 4338c1,-10 7,-21 10,-37 4,-17 4,-40 2,-58 -2,-17 -6,-30 -12,-41 -5,-11 -12,-22 -19,-34 -7,-11 -14,-23 -19,-33 -6,-9 -9,-16 -4,-19 6,-3 20,-3 39,-2 20,1 45,4 70,10 25,6 50,16 65,26 14,9 19,19 13,36 -5,17 -22,41 -36,62 -15,21 -28,40 -45,59 -16,19 -36,38 -48,43 -13,6 -17,-3 -16,-12z"/>
      </g>
      <g>
       <path class="fil3" d="M9773 4030c-11,-32 -30,-88 -41,-114 -11,-27 -14,-24 -41,46 -27,71 -78,209 -103,283 -26,73 -27,81 -21,92 5,12 17,27 56,41 40,14 108,28 164,35 57,6 101,6 125,9 24,2 27,7 30,15 3,8 6,20 11,32 4,13 10,28 13,39 4,10 6,17 10,19 5,2 12,-2 17,-4 6,-1 9,1 6,-13 -3,-13 -12,-40 -20,-60 -9,-20 -16,-33 -29,-41 -13,-7 -32,-8 -64,-11 -33,-3 -79,-6 -117,-10 -38,-5 -66,-10 -92,-16 -26,-6 -48,-14 -64,-23 -16,-9 -26,-19 -29,-29 -4,-10 -1,-20 34,-60 35,-41 103,-113 136,-152 32,-40 30,-47 19,-78z"/>
       <path class="fil3" d="M9912 4333c-6,-7 -18,-11 -32,-22 -13,-11 -28,-28 -37,-43 -10,-15 -15,-27 -18,-39 -3,-12 -5,-25 -7,-38 -2,-13 -4,-27 -6,-38 -2,-10 -4,-18 -10,-17 -6,1 -17,10 -31,24 -15,13 -32,31 -48,52 -15,21 -27,44 -32,61 -5,17 -3,28 12,37 16,9 43,17 68,24 25,7 47,13 72,17 25,4 53,6 66,2 12,-4 10,-14 3,-20z"/>
      </g>
     </g>
     <g>
      <g>
       <path class="fil1" d="M9809 4015c-12,-31 -33,-85 -42,-113 -8,-27 -4,-27 62,10 66,36 193,110 260,150 67,39 72,45 76,57 3,13 4,31 -18,68 -21,36 -64,90 -103,132 -39,41 -73,70 -90,87 -17,17 -16,23 -13,31 3,8 8,19 12,31 5,13 10,28 14,38 4,11 8,18 5,22 -2,4 -10,5 -15,8 -5,2 -7,6 -13,-6 -6,-12 -17,-39 -23,-60 -7,-21 -9,-36 -4,-50 5,-13 18,-27 42,-49 23,-23 57,-56 83,-84 26,-27 45,-49 60,-70 16,-22 28,-42 35,-59 6,-17 7,-31 3,-41 -3,-10 -11,-16 -65,-24 -53,-9 -151,-20 -201,-30 -51,-9 -53,-16 -65,-48z"/>
       <path class="fil1" d="M9896 4338c1,-10 8,-21 11,-37 3,-17 3,-40 1,-58 -2,-17 -6,-30 -11,-41 -5,-11 -12,-22 -19,-34 -7,-11 -14,-23 -19,-33 -6,-9 -9,-16 -4,-19 6,-3 19,-3 39,-2 20,1 45,4 70,10 25,6 50,16 64,26 15,9 20,19 14,36 -6,17 -22,41 -37,62 -14,21 -27,40 -44,59 -16,19 -36,38 -49,43 -12,6 -17,-3 -16,-12z"/>
      </g>
      <g>
       <path class="fil1" d="M9767 4030c-10,-32 -29,-88 -40,-114 -11,-27 -14,-24 -41,46 -27,71 -78,209 -103,283 -26,73 -27,81 -21,92 5,12 16,27 56,41 40,14 108,28 164,35 56,6 101,6 125,9 24,2 27,7 30,15 3,8 6,20 10,32 5,13 10,28 14,39 4,10 6,17 10,19 5,2 12,-2 17,-4 6,-1 9,1 6,-13 -3,-13 -12,-40 -20,-60 -9,-20 -16,-33 -29,-41 -13,-7 -32,-8 -64,-11 -33,-3 -80,-6 -117,-10 -38,-5 -67,-10 -92,-16 -26,-6 -48,-14 -64,-23 -16,-9 -26,-19 -29,-29 -4,-10 -1,-20 34,-60 35,-41 103,-113 136,-152 32,-40 29,-47 18,-78z"/>
       <path class="fil1" d="M9907 4333c-7,-7 -19,-11 -32,-22 -13,-11 -28,-28 -37,-43 -10,-15 -15,-27 -18,-39 -4,-12 -5,-25 -7,-38 -2,-13 -5,-27 -7,-38 -2,-10 -3,-18 -9,-17 -7,1 -17,10 -31,24 -15,13 -33,31 -48,52 -15,21 -28,44 -33,61 -5,17 -2,28 13,37 15,9 43,17 68,24 25,7 47,13 72,17 25,4 52,6 65,2 13,-4 11,-14 4,-20z"/>
      </g>
     </g>
    </g>
   </g>
   <g>
    <g>
     <g>
      <polygon class="fil4" points="394,3775 571,3756 707,3756 536,3775 "/>
      <polygon class="fil4" points="536,3775 707,3756 707,4384 536,4429 "/>
      <polygon class="fil4" points="790,3938 952,3913 952,4384 790,4429 "/>
      <polygon class="fil4" points="657,3775 824,3756 1041,3756 883,3775 "/>
      <polygon class="fil4" points="883,3775 1041,3756 1311,4227 1164,4265 "/>
      <polygon class="fil4" points="1164,3775 1311,3756 1439,3756 1298,3775 "/>
      <polygon class="fil4" points="1298,3775 1439,3756 1439,4384 1298,4429 "/>
      <polygon class="fil4" points="1553,4221 1684,4185 1684,4195 1685,4204 1685,4212 1687,4219 1689,4226 1691,4232 1695,4236 1698,4241 1702,4244 1708,4246 1713,4248 1719,4249 1726,4251 1732,4252 1739,4253 1747,4253 1754,4253 1819,4253 1694,4293 1626,4293 1618,4293 1610,4292 1603,4291 1596,4290 1590,4289 1583,4287 1578,4285 1572,4283 1568,4280 1564,4275 1561,4270 1558,4264 1556,4257 1554,4250 1554,4241 1553,4232 "/>
      <polygon class="fil4" points="1694,4293 1819,4253 1911,4249 1920,4249 1928,4249 1935,4248 1942,4246 1947,4244 1827,4283 1821,4285 1815,4287 1807,4288 1798,4289 1789,4289 "/>
      <polygon class="fil4" points="1554,3775 1685,3756 1689,3756 1693,3755 1697,3755 1700,3754 1704,3754 1708,3754 1712,3753 1716,3753 1720,3753 1724,3753 1728,3753 1732,3753 1736,3753 1831,3750 1706,3768 1607,3771 1603,3771 1599,3771 1594,3772 1590,3772 1586,3772 1582,3772 1578,3772 1574,3773 1570,3773 1566,3774 1562,3774 1558,3774 "/>
      <polygon class="fil4" points="1706,3768 1831,3750 1926,3750 1933,3750 1940,3750 1947,3750 1954,3751 1960,3751 1966,3751 1972,3752 1978,3753 1983,3754 1988,3754 1994,3756 1999,3757 2004,3758 2009,3760 2013,3761 2018,3763 2026,3766 2034,3770 2041,3775 2048,3780 2053,3786 2058,3793 2063,3801 2067,3809 2069,3813 2070,3817 2072,3821 2073,3826 2075,3830 2076,3834 2078,3838 2079,3841 2080,3845 2081,3849 2082,3853 2083,3857 2084,3860 2084,3864 2085,3867 2086,3871 2086,3875 2087,3878 2087,3882 2088,3886 2088,3891 2088,3895 2089,3899 2089,3904 2089,3909 2089,3914 2090,3919 2090,3925 2090,3930 2090,3936 2090,3941 2090,3947 1976,3974 1976,3968 1976,3962 1976,3956 1976,3950 1975,3945 1975,3939 1975,3934 1975,3929 1974,3924 1974,3919 1974,3915 1973,3911 1973,3906 1972,3902 1972,3898 1971,3895 1971,3891 1970,3887 1969,3883 1968,3880 1967,3876 1966,3872 1965,3868 1964,3864 1963,3860 1962,3856 1960,3851 1959,3847 1957,3843 1955,3839 1954,3834 1952,3830 1948,3821 1943,3813 1938,3806 1932,3800 1925,3795 1918,3790 1910,3786 1901,3782 1896,3780 1891,3779 1886,3777 1881,3776 1875,3774 1870,3773 1864,3772 1859,3771 1853,3771 1847,3770 1840,3770 1834,3769 1827,3769 1820,3769 1813,3769 1805,3768 "/>
      <polygon class="fil4" points="1595,3917 1725,3893 1720,3894 1716,3895 1711,3896 1707,3898 1703,3900 1699,3903 1696,3906 1693,3910 1690,3913 1688,3918 1686,3923 1685,3928 1685,3934 1684,3940 1685,3949 1685,3956 1687,3963 1689,3969 1691,3975 1694,3980 1697,3984 1701,3988 1703,3989 1705,3990 1708,3991 1710,3992 1713,3993 1715,3994 1718,3995 1721,3995 1724,3996 1727,3997 1730,3997 1734,3998 1737,3998 1741,3998 1744,3998 1748,3998 1762,3998 1634,4027 1620,4027 1616,4027 1612,4027 1608,4027 1605,4026 1601,4026 1598,4025 1594,4025 1591,4024 1588,4023 1585,4023 1583,4022 1580,4021 1578,4020 1575,4018 1573,4017 1571,4016 1567,4012 1563,4008 1560,4003 1558,3997 1556,3991 1554,3983 1553,3975 1553,3967 1553,3960 1554,3954 1555,3949 1557,3943 1559,3939 1562,3935 1565,3931 1569,3928 1573,3925 1577,3923 1581,3921 1586,3919 1590,3918 "/>
      <polygon class="fil4" points="1634,4027 1762,3998 1854,3998 1730,4027 "/>
      <polygon class="fil4" points="1730,4027 1854,3998 1944,3998 1954,3998 1965,3999 1975,4000 1984,4001 1993,4002 2002,4004 2011,4006 2019,4008 2026,4010 2034,4013 2041,4016 2047,4020 2053,4024 2059,4028 2064,4032 2069,4037 2074,4042 2079,4047 2083,4053 2087,4060 2090,4067 2093,4075 2096,4084 2099,4093 2101,4103 2103,4114 2105,4125 2106,4136 2107,4149 2108,4162 2109,4175 2109,4189 2109,4203 2108,4216 2108,4228 2107,4240 2105,4252 2104,4263 2102,4273 2100,4283 2098,4292 2095,4301 2092,4309 2089,4317 2086,4324 2082,4330 2078,4336 2074,4342 2069,4347 2064,4351 2059,4356 2053,4360 2047,4363 2041,4367 2034,4370 2027,4373 1910,4417 1917,4414 1924,4411 1931,4408 1937,4404 1943,4399 1949,4395 1954,4390 1959,4385 1963,4379 1967,4373 1971,4366 1975,4359 1978,4351 1981,4342 1984,4333 1986,4324 1988,4313 1990,4303 1992,4291 1993,4279 1994,4267 1995,4254 1995,4240 1995,4226 1995,4211 1995,4197 1994,4184 1993,4171 1991,4159 1990,4147 1988,4136 1985,4126 1982,4117 1979,4108 1976,4099 1972,4092 1968,4085 1964,4078 1959,4072 1954,4067 1949,4062 1943,4058 1937,4054 1931,4050 1924,4046 1917,4043 1910,4040 1902,4037 1893,4035 1884,4033 1875,4031 1866,4030 1856,4029 1845,4028 1835,4027 1823,4027 "/>
      <polygon class="fil4" points="1413,4221 1550,4185 1684,4185 1553,4221 "/>
      <polygon class="fil4" points="2065,3775 2175,3756 2712,3756 2623,3775 "/>
      <polygon class="fil4" points="2623,3775 2712,3756 2712,3914 2623,3939 "/>
      <polygon class="fil4" points="2415,3939 2512,3914 2512,4384 2415,4429 "/>
      <polygon class="fil4" points="2926,3775 3002,3756 3186,3756 3118,3775 "/>
      <polygon class="fil4" points="3118,3775 3186,3756 3431,4384 3373,4429 "/>
      <polygon class="fil4" points="2870,4310 2949,4270 2904,4384 2824,4429 "/>
      <polygon class="fil4" points="2920,4175 2996,4140 3189,4140 3120,4175 "/>
      <polygon class="fil4" points="3020,3916 3092,3892 2996,4140 2920,4175 "/>
      <polygon class="fil4" points="3590,3938 3639,3913 3639,4384 3590,4429 "/>
      <polygon class="fil4" points="3456,3775 3511,3756 3728,3756 3682,3775 "/>
      <polygon class="fil4" points="3682,3775 3728,3756 3998,4227 3963,4265 "/>
      <polygon class="fil4" points="3963,3775 3998,3756 4126,3756 4097,3775 "/>
      <polygon class="fil4" points="4097,3775 4126,3756 4126,4384 4097,4429 "/>
      <polygon class="fil4" points="4176,3775 4202,3756 4738,3756 4735,3775 "/>
      <polygon class="fil4" points="4735,3775 4738,3756 4738,3914 4735,3939 "/>
      <polygon class="fil4" points="4527,3939 4539,3914 4539,4384 4527,4429 "/>
      <polygon class="fil4" points="5131,4036 5119,4007 5459,4007 5485,4036 "/>
      <polygon class="fil4" points="4989,4429 4983,4384 4983,3756 4989,3775 "/>
      <polygon class="fil4" points="4989,3775 4983,3756 5459,3756 5485,3775 "/>
      <polygon class="fil4" points="5534,4429 5506,4384 5755,3756 5794,3775 "/>
      <polygon class="fil4" points="5794,3775 5755,3756 5940,3756 5986,3775 "/>
      <polygon class="fil4" points="6084,4429 6034,4384 5991,4270 6040,4310 "/>
      <polygon class="fil4" points="5788,4175 5749,4140 5942,4140 5988,4175 "/>
      <polygon class="fil4" points="5988,4175 5942,4140 5846,3892 5888,3916 "/>
      <polygon class="fil4" points="6981,4429 6895,4384 6895,3906 6981,3931 "/>
      <polygon class="fil4" points="6661,4429 6588,4384 6392,3906 6457,3931 "/>
      <polygon class="fil4" points="6324,4429 6264,4384 6264,3756 6324,3775 "/>
      <polygon class="fil4" points="6324,3775 6264,3756 6481,3756 6550,3775 "/>
      <polygon class="fil4" points="6721,4208 6646,4172 6808,3756 6891,3775 "/>
      <polygon class="fil4" points="6891,3775 6808,3756 7024,3756 7115,3775 "/>
      <polygon class="fil4" points="7538,3768 7430,3750 7538,3753 7546,3753 7553,3753 7560,3753 7567,3754 7574,3754 7581,3755 7587,3755 7594,3756 7600,3757 7715,3776 7709,3775 7702,3774 7695,3773 7688,3773 7681,3772 7674,3772 7667,3772 7659,3771 7651,3771 "/>
      <polygon class="fil4" points="7320,4416 7220,4371 7213,4367 7206,4363 7200,4359 7193,4354 7187,4349 7182,4343 7176,4337 7171,4331 7166,4324 7162,4317 7157,4309 7154,4300 7150,4292 7147,4282 7144,4273 7142,4262 7139,4252 7138,4241 7136,4229 7135,4217 7134,4204 7134,4191 7133,4178 7132,4062 7132,4050 7132,4038 7132,4027 7133,4016 7133,4005 7133,3995 7134,3984 7134,3974 7135,3965 7135,3955 7136,3946 7137,3937 7138,3928 7139,3920 7140,3912 7141,3904 7142,3896 7143,3888 7144,3881 7146,3874 7147,3868 7148,3861 7150,3855 7152,3849 7153,3844 7155,3838 7157,3833 7159,3828 7160,3824 7162,3820 7165,3815 7167,3812 7169,3808 7171,3805 7174,3801 7177,3798 7180,3795 7183,3792 7186,3789 7190,3786 7194,3783 7198,3781 7202,3778 7206,3776 7211,3773 7215,3771 7220,3769 7226,3767 7231,3766 7236,3764 7242,3762 7248,3761 7254,3760 7260,3758 7267,3757 7273,3756 7280,3756 7287,3755 7294,3754 7302,3754 7309,3753 7317,3753 7325,3753 7333,3753 7430,3750 7538,3768 7437,3771 7429,3771 7420,3772 7412,3772 7404,3772 7397,3773 7389,3774 7382,3774 7375,3775 7368,3776 7361,3777 7355,3779 7349,3780 7342,3782 7337,3783 7331,3785 7325,3787 7320,3789 7315,3791 7310,3793 7305,3795 7301,3798 7296,3800 7292,3803 7288,3806 7285,3809 7281,3812 7278,3815 7275,3818 7272,3822 7269,3825 7266,3829 7264,3833 7262,3837 7260,3841 7258,3845 7256,3850 7254,3855 7252,3861 7250,3866 7248,3872 7247,3878 7245,3885 7243,3891 7242,3898 7241,3905 7239,3913 7238,3921 7237,3929 7236,3937 7235,3945 7234,3954 7233,3963 7232,3973 7231,3982 7231,3992 7230,4002 7230,4013 7229,4023 7229,4034 7228,4046 7228,4057 7228,4069 7228,4081 7228,4093 7229,4214 7230,4228 7230,4242 7231,4255 7232,4267 7234,4280 7236,4291 7238,4302 7240,4313 7243,4323 7247,4333 7250,4342 7254,4351 7259,4359 7263,4366 7268,4374 7274,4380 7279,4387 7285,4392 7292,4398 7298,4403 7305,4408 7312,4412 "/>
      <polygon class="fil4" points="7461,4276 7356,4237 7429,4237 7537,4276 "/>
      <polygon class="fil4" points="7537,4276 7429,4237 7499,4237 7506,4237 7513,4237 7519,4237 7525,4236 7531,4236 7537,4235 7543,4234 7548,4233 7553,4232 7558,4231 7562,4229 7567,4228 7571,4226 7575,4224 7578,4222 7581,4220 7585,4218 7587,4215 7590,4212 7593,4208 7595,4204 7597,4200 7599,4195 7601,4190 7602,4184 7603,4178 7605,4172 7605,4165 7606,4157 7607,4150 7607,4142 7607,4133 7608,4048 7608,4043 7608,4037 7608,4032 7608,4027 7608,4022 7608,4018 7608,4013 7607,4008 7607,4004 7607,3999 7607,3995 7606,3991 7606,3986 7606,3982 7605,3978 7605,3974 7604,3967 7602,3960 7601,3953 7599,3947 7597,3942 7595,3937 7593,3933 7590,3929 7587,3925 7584,3922 7580,3919 7576,3917 7572,3915 7567,3913 7562,3911 7557,3910 7670,3935 7676,3936 7681,3938 7686,3940 7690,3942 7695,3945 7698,3948 7702,3951 7705,3955 7708,3959 7710,3963 7712,3968 7714,3974 7716,3980 7718,3987 7719,3994 7720,4002 7721,4006 7721,4010 7722,4015 7722,4019 7722,4024 7723,4028 7723,4033 7723,4038 7723,4042 7724,4047 7724,4052 7724,4057 7724,4063 7724,4068 7724,4073 7724,4079 7723,4168 7723,4176 7722,4185 7722,4193 7721,4201 7720,4208 7719,4215 7718,4221 7716,4227 7714,4232 7712,4237 7710,4242 7708,4246 7705,4250 7702,4253 7699,4256 7696,4258 7693,4260 7689,4262 7685,4264 7681,4266 7676,4268 7672,4269 7667,4270 7661,4272 7656,4273 7650,4274 7644,4274 7638,4275 7631,4275 7624,4276 7617,4276 7610,4276 "/>
      <polygon class="fil4" points="7417,4270 7314,4231 7319,4233 7324,4234 7330,4235 7336,4236 7342,4237 7349,4237 7356,4237 7461,4276 7454,4276 7447,4276 7440,4275 7434,4274 7428,4273 7422,4271 "/>
      <polygon class="fil4" points="8082,4421 7952,4377 7946,4375 7941,4372 7936,4370 7930,4366 7925,4363 7920,4359 7916,4355 7911,4351 7906,4346 7902,4341 7898,4336 7894,4330 7890,4324 7886,4318 7882,4311 7880,4308 7879,4304 7877,4301 7875,4297 7874,4293 7872,4289 7871,4285 7869,4280 7868,4276 7867,4271 7865,4267 7864,4262 7863,4257 7862,4252 7861,4247 7860,4242 7859,4237 7858,4231 7858,4226 7857,4220 7856,4214 7856,4208 7855,4202 7855,4196 7854,4190 7854,4183 7854,4177 7853,4170 7853,4164 7853,4157 7853,4150 7853,4143 7853,3757 7979,3776 7979,4178 7979,4185 7979,4192 7979,4199 7979,4206 7980,4213 7980,4220 7980,4227 7981,4233 7981,4240 7982,4246 7982,4252 7983,4258 7984,4264 7985,4270 7986,4275 7986,4281 7987,4286 7988,4292 7990,4297 7991,4302 7992,4307 7993,4312 7995,4316 7996,4321 7997,4325 7999,4330 8000,4334 8002,4338 8004,4342 8006,4346 8007,4350 8009,4353 8013,4360 8017,4367 8021,4373 8026,4379 8030,4385 8035,4390 8039,4395 8044,4399 8049,4403 8054,4407 8060,4411 8065,4414 8071,4417 8076,4419 "/>
      <polygon class="fil4" points="7979,3776 7853,3757 7989,3757 8121,3776 "/>
      <polygon class="fil4" points="8173,4271 8039,4233 8045,4234 8051,4235 8057,4236 8064,4237 8071,4238 8079,4238 8087,4238 8148,4238 8286,4277 8222,4277 8214,4277 8206,4277 8199,4276 8192,4275 8185,4274 8179,4273 "/>
      <polygon class="fil4" points="8286,4277 8148,4238 8204,4238 8211,4238 8218,4238 8224,4237 8230,4237 8235,4236 8240,4235 8245,4233 8250,4232 8254,4230 8258,4229 8262,4227 8265,4224 8268,4222 8271,4219 8274,4216 8276,4214 8278,4210 8280,4207 8281,4203 8283,4198 8284,4193 8285,4188 8287,4182 8288,4176 8289,4170 8289,4163 8290,4156 8291,4149 8291,4141 8291,4132 8292,4124 8292,4114 8292,4091 8436,4123 8436,4148 8436,4158 8436,4167 8435,4175 8435,4184 8434,4192 8433,4199 8433,4206 8432,4213 8431,4219 8429,4225 8428,4230 8427,4235 8425,4240 8423,4244 8421,4248 8419,4251 8417,4254 8415,4257 8412,4260 8409,4263 8405,4265 8401,4267 8397,4269 8392,4271 8388,4272 8383,4273 8377,4275 8371,4275 8365,4276 8359,4277 8352,4277 8345,4277 "/>
      <polygon class="fil4" points="8436,4123 8292,4091 8292,3757 8436,3776 "/>
      <polygon class="fil4" points="8436,3776 8292,3757 8429,3757 8579,3776 "/>
      <polygon class="fil4" points="8870,4289 8709,4249 8715,4251 8722,4252 8729,4253 8736,4253 8744,4253 8809,4253 8974,4293 8907,4293 8899,4293 8891,4292 8884,4291 8877,4290 "/>
      <polygon class="fil4" points="8974,4293 8809,4253 8900,4249 8909,4249 8917,4249 8925,4248 8931,4246 8937,4244 8942,4242 8946,4239 8949,4236 8952,4233 8954,4229 8956,4224 8958,4220 8959,4214 8960,4208 8961,4202 8961,4195 8961,4189 8960,4183 8959,4178 8957,4173 8956,4168 8953,4163 8951,4159 8948,4155 8944,4152 8940,4149 8934,4146 8929,4144 8922,4142 9092,4177 9099,4179 9105,4181 9111,4184 9115,4187 9119,4191 9122,4195 9125,4199 9127,4204 9129,4209 9131,4214 9132,4220 9133,4226 9133,4232 9133,4239 9132,4246 9131,4252 9130,4258 9128,4263 9126,4267 9124,4272 9121,4275 9118,4278 9113,4281 9108,4283 9102,4285 9095,4287 9088,4288 9079,4289 9070,4289 "/>
      <polygon class="fil4" points="8780,4164 8622,4130 8615,4128 8609,4127 8603,4124 8597,4122 8592,4119 8587,4115 8582,4112 8577,4108 8573,4104 8569,4099 8565,4094 8562,4089 8559,4083 8556,4076 8553,4070 8550,4063 8548,4055 8546,4048 8544,4040 8543,4031 8541,4022 8540,4013 8539,4004 8538,3994 8537,3984 8537,3973 8536,3962 8536,3951 8536,3942 8536,3932 8537,3923 8537,3915 8538,3906 8538,3898 8539,3890 8540,3883 8541,3875 8542,3868 8544,3861 8545,3855 8547,3849 8548,3843 8550,3837 8552,3831 8554,3826 8557,3821 8559,3816 8562,3811 8565,3807 8568,3803 8572,3799 8575,3795 8579,3791 8583,3788 8587,3785 8592,3782 8597,3779 8602,3776 8607,3774 8612,3772 8618,3769 8624,3768 8630,3766 8637,3764 8643,3762 8650,3761 8657,3759 8664,3758 8668,3757 8671,3757 8675,3756 8679,3756 8682,3755 8686,3755 8690,3754 8694,3754 8698,3754 8702,3753 8705,3753 8709,3753 8713,3753 8717,3753 8721,3753 8726,3753 8820,3750 8987,3768 8888,3771 8884,3771 8879,3771 8875,3772 8871,3772 8867,3772 8863,3772 8859,3772 8855,3773 8851,3773 8847,3774 8843,3774 8839,3774 8835,3775 8831,3776 8828,3776 8824,3777 8816,3778 8809,3780 8802,3781 8795,3783 8789,3785 8782,3787 8776,3789 8770,3791 8764,3793 8759,3796 8754,3799 8749,3801 8744,3805 8740,3808 8735,3812 8731,3815 8728,3819 8724,3824 8721,3828 8718,3833 8715,3837 8712,3842 8710,3848 8707,3853 8705,3859 8703,3865 8702,3871 8700,3878 8698,3885 8697,3892 8696,3899 8695,3907 8694,3915 8693,3923 8692,3931 8692,3940 8691,3949 8691,3959 8691,3968 8691,3978 8691,3990 8691,4001 8691,4012 8692,4023 8693,4033 8694,4043 8696,4052 8697,4061 8699,4070 8701,4079 8703,4087 8705,4094 8708,4102 8711,4108 8714,4115 8717,4121 8721,4127 8725,4132 8729,4137 8733,4141 8738,4145 8743,4149 8749,4153 8754,4156 8760,4158 8767,4161 8773,4163 "/>
      <polygon class="fil4" points="8987,3768 8820,3750 8916,3750 8923,3750 8930,3750 8937,3750 8943,3751 8950,3751 8956,3751 8962,3752 9134,3771 9128,3770 9121,3770 9115,3769 9108,3769 9101,3769 9093,3769 9086,3768 "/>
      <polygon class="fil4" points="9117,3974 8946,3947 8946,3940 8945,3933 8944,3926 8942,3920 8941,3915 8938,3910 8935,3906 8932,3902 8929,3899 8925,3896 8920,3894 8916,3892 8911,3890 8905,3889 9075,3913 9081,3914 9086,3916 9091,3918 9095,3920 9099,3923 9103,3927 9106,3931 9109,3935 9112,3940 9114,3946 9115,3952 9117,3959 9117,3966 "/>
      <polygon class="fil4" points="8878,4025 8717,3997 8720,3997 8723,3998 8727,3998 8730,3998 8734,3998 8738,3998 8752,3998 8915,4027 8900,4027 8897,4027 8893,4027 8889,4027 8885,4026 8882,4026 "/>
      <polygon class="fil4" points="8915,4027 8752,3998 8843,3998 9010,4027 "/>
      <polygon class="fil4" points="9010,4027 8843,3998 8933,3998 8944,3998 8954,3999 8964,4000 8974,4001 8983,4002 9156,4031 9146,4030 9136,4029 9126,4028 9115,4027 9104,4027 "/>
      <polygon class="fil4" points="8775,4423 8617,4379 8611,4376 8604,4374 8598,4371 8593,4368 8588,4365 8583,4362 8578,4358 8573,4354 8569,4350 8565,4345 8562,4339 8559,4333 8556,4327 8553,4320 8550,4313 8548,4305 8546,4296 8544,4287 8543,4278 8542,4268 8541,4257 8540,4246 8540,4234 8539,4222 8539,4185 8694,4221 8694,4260 8694,4273 8695,4285 8695,4297 8696,4308 8697,4318 8699,4328 8701,4338 8703,4346 8705,4355 8708,4362 8711,4370 8714,4376 8717,4382 8721,4388 8725,4393 8729,4398 8734,4402 8739,4406 8744,4409 8750,4413 8755,4416 8762,4418 8768,4421 "/>
      <polygon class="fil4" points="8694,4221 8539,4185 8673,4185 8833,4221 "/>
     </g>
     <polygon class="fil5" points="394,4429 394,3775 536,3775 536,4429 "/>
     <polygon id="1" class="fil5" points="1072,4429 790,3938 790,4429 657,4429 657,3775 883,3775 1164,4265 1164,3775 1298,3775 1298,4429 "/>
     <path id="2" class="fil5" d="M1553 4232c0,26 6,43 19,51 14,6 32,10 54,10l68 0 95 -4c26,0 43,-5 51,-14 8,-9 12,-23 12,-43 0,-17 -5,-31 -14,-41 -9,-11 -26,-16 -52,-16l-23 0 -234 -8c-43,0 -74,-15 -93,-46 -17,-32 -26,-79 -26,-143 0,-53 5,-95 17,-125 11,-30 31,-50 62,-62 16,-6 34,-11 54,-14 20,-4 41,-6 64,-6l99 -3 99 0c21,0 39,1 54,3 15,2 29,6 42,11 24,8 41,24 51,48 10,24 16,45 19,65 3,19 5,46 5,79l-139 0c0,-22 -5,-38 -15,-47 -9,-10 -23,-14 -40,-14l-69 -1 -108 4c-14,0 -26,4 -36,12 -11,8 -16,21 -16,39 0,24 6,40 18,49 5,3 12,6 20,8 9,2 18,3 29,3l14 0 96 0 93 0c61,0 105,14 131,40 28,26 41,79 41,159 0,77 -12,130 -36,159 -25,29 -65,43 -122,43l-182 7 -95 -3c-51,0 -88,-12 -111,-34 -24,-23 -36,-69 -36,-138l0 -39 140 0 0 11z"/>
     <polygon id="3" class="fil5" points="2273,4429 2273,3939 2065,3939 2065,3775 2623,3775 2623,3939 2415,3939 2415,4429 "/>
     <path id="4" class="fil5" d="M2824 4429l-158 0 260 -654 192 0 255 654 -157 0 -44 -119 -302 0 -46 119zm96 -254l200 0 -100 -259 -100 259z"/>
     <polygon id="5" class="fil5" points="3871,4429 3590,3938 3590,4429 3456,4429 3456,3775 3682,3775 3963,4265 3963,3775 4097,3775 4097,4429 "/>
     <polygon id="6" class="fil5" points="4385,4429 4385,3939 4176,3939 4176,3775 4735,3775 4735,3939 4527,3939 4527,4429 "/>
     <polygon id="7" class="fil5" points="5485,3775 5485,3924 5131,3924 5131,4036 5485,4036 5485,4165 5131,4165 5131,4429 4989,4429 4989,3775 "/>
     <path id="8" class="fil5" d="M5692 4429l-158 0 260 -654 192 0 254 654 -156 0 -44 -119 -302 0 -46 119zm96 -254l200 0 -100 -259 -100 259z"/>
     <polygon id="9" class="fil5" points="6981,4429 6981,3931 6775,4429 6661,4429 6457,3931 6457,4429 6324,4429 6324,3775 6550,3775 6721,4208 6891,3775 7115,3775 7115,4429 "/>
     <path id="10" class="fil5" d="M7538 3768l113 3c83,0 140,20 171,58 30,38 46,115 46,231l0 31c0,135 -13,226 -37,272 -24,46 -85,69 -184,69l-107 4 -45 0 -96 -4c-54,0 -96,-17 -125,-52 -30,-34 -45,-89 -45,-166l-1 -121c0,-132 12,-219 36,-260 24,-41 82,-62 173,-62l101 -3zm-77 508l76 0 73 0c40,0 68,-6 86,-18 18,-12 27,-42 27,-90l1 -89c0,-30 -1,-55 -4,-77 -2,-22 -7,-37 -15,-47 -8,-10 -19,-17 -35,-20 -15,-3 -27,-5 -34,-5 -7,-1 -13,-1 -17,-1l-141 0c-33,0 -58,5 -74,14 -17,9 -26,28 -29,59l-4 75 0 18 0 26c0,60 5,101 15,123 10,21 35,32 75,32z"/>
     <path id="11" class="fil5" d="M8579 4149l0 38c0,101 -20,168 -58,201 -39,32 -97,49 -176,49l-116 0c-32,0 -59,-1 -82,-3 -22,-2 -42,-6 -59,-11 -32,-8 -58,-32 -79,-70 -20,-38 -30,-96 -30,-175l0 -402 142 0 0 344c0,64 5,106 17,126 11,21 39,31 84,31l64 0 59 0c39,0 63,-8 74,-26 11,-17 17,-51 17,-103l0 -25 0 -347 143 0 0 373z"/>
     <path id="12" class="fil5" d="M8834 4232c0,26 6,43 19,51 14,6 32,10 54,10l67 0 96 -4c26,0 43,-5 51,-14 8,-9 12,-23 12,-43 0,-17 -5,-31 -14,-41 -9,-11 -26,-16 -52,-16l-23 0 -234 -8c-43,0 -74,-15 -93,-46 -18,-32 -27,-79 -27,-143 0,-53 6,-95 17,-125 11,-30 32,-50 63,-62 16,-6 34,-11 54,-14 20,-4 41,-6 64,-6l99 -3 99 0c20,0 38,1 53,3 16,2 30,6 43,11 24,8 40,24 50,48 11,24 17,45 20,65 3,19 5,46 5,79l-140 0c0,-22 -4,-38 -14,-47 -10,-10 -23,-14 -40,-14l-69 -1 -108 4c-14,0 -26,4 -36,12 -11,8 -16,21 -16,39 0,24 6,40 17,49 6,3 13,6 21,8 8,2 18,3 28,3l15 0 95 0 94 0c61,0 104,14 131,40 27,26 41,79 41,159 0,77 -12,130 -37,159 -24,29 -64,43 -121,43l-182 7 -95 -3c-51,0 -88,-12 -112,-34 -23,-23 -35,-69 -35,-138l0 -39 139 0 1 11z"/>
    </g>
    <g>
     <path class="fil5" d="M1347 4654l124 0 1 17c0,29 -5,50 -13,62 -9,11 -28,17 -58,17l-47 0 -33 0c-36,0 -60,-5 -72,-16 -12,-11 -17,-34 -17,-70l0 -11c0,-37 4,-62 13,-76 8,-14 30,-21 64,-21l48 -1 23 0 38 1c18,0 31,5 39,14 8,9 12,23 12,43l-23 0c0,-17 -4,-27 -11,-31 -7,-4 -20,-6 -39,-6l-39 -1 -23 0 -37 2c-15,1 -25,4 -31,8 -6,4 -9,15 -9,31l-1 50c0,20 1,36 4,47 3,11 18,16 46,16l49 0 21 1 4 0c9,0 20,-1 34,-2 15,-2 24,-6 28,-14 3,-8 5,-22 5,-41l-100 0 0 -19z"/>
     <path id="1" class="fil5" d="M1737 4614c0,17 -2,29 -7,35 -6,6 -17,11 -34,13 13,2 23,5 29,10 6,4 9,12 9,24l0 52 -23 0 0 -43c0,-14 -3,-23 -9,-28 -6,-4 -17,-6 -32,-6l-130 0 0 77 -23 0 0 -191 155 0c23,0 40,4 50,11 10,8 15,23 15,46zm-24 -2c0,-15 -3,-24 -11,-29 -7,-4 -18,-7 -34,-7l-128 0 0 75 128 0c17,0 29,-2 35,-8 7,-5 10,-15 10,-31z"/>
     <path id="2" class="fil5" d="M1845 4555l84 0c40,0 66,5 77,16 11,10 17,35 17,74l0 7 0 6c0,13 -1,28 -3,43 -2,15 -7,27 -16,35 -10,8 -23,12 -42,12 -6,1 -13,1 -22,2 -9,0 -17,0 -25,0l-43 0 -5 0c-12,0 -23,-1 -34,-2 -10,-1 -19,-3 -27,-6 -7,-3 -13,-9 -18,-16 -4,-8 -7,-18 -9,-30 -1,-12 -2,-26 -2,-42 0,-16 0,-27 1,-34 0,-7 2,-16 4,-29 3,-13 10,-22 21,-27 10,-6 24,-9 42,-9zm5 174l49 1 18 0 6 0c14,0 28,-1 41,-2 14,-2 23,-6 28,-14 4,-8 6,-19 6,-35l0 -39c0,-12 0,-22 -1,-31 -1,-9 -3,-16 -6,-21 -4,-4 -8,-8 -13,-9 -5,-1 -11,-2 -16,-3 -5,0 -11,-1 -17,-1l-45 0 -45 0c-21,0 -36,3 -43,9 -6,6 -10,19 -10,40l-1 29 0 14c0,24 3,40 8,49 5,8 19,13 41,13z"/>
     <polygon id="3" class="fil5" points="2436,4557 2345,4748 2312,4748 2238,4579 2162,4748 2131,4748 2040,4557 2066,4557 2146,4727 2222,4557 2254,4557 2329,4727 2410,4557 "/>
     <polygon id="4" class="fil5" points="2741,4557 2631,4667 2631,4748 2608,4748 2608,4667 2498,4557 2531,4557 2619,4646 2708,4557 "/>
     <path id="5" class="fil5" d="M2824 4555l85 0c39,0 65,5 76,16 11,10 17,35 17,74l0 7 0 6c0,13 -1,28 -3,43 -2,15 -7,27 -16,35 -9,8 -23,12 -42,12 -6,1 -13,1 -22,2 -9,0 -17,0 -25,0l-43 0 -5 0c-12,0 -23,-1 -34,-2 -10,-1 -19,-3 -27,-6 -7,-3 -13,-9 -18,-16 -4,-8 -7,-18 -9,-30 -1,-12 -2,-26 -2,-42 0,-16 0,-27 1,-34 0,-7 2,-16 5,-29 2,-13 9,-22 20,-27 10,-6 25,-9 42,-9zm5 174l49 1 18 0 6 0c14,0 28,-1 41,-2 14,-2 23,-6 28,-14 4,-8 7,-19 7,-35l0 -39c0,-12 -1,-22 -2,-31 -1,-9 -3,-16 -6,-21 -3,-4 -8,-8 -13,-9 -5,-1 -11,-2 -16,-3 -5,0 -11,-1 -17,-1l-45 0 -45 0c-21,0 -36,3 -43,9 -6,6 -10,19 -10,40l-1 29 0 14c0,24 3,40 8,49 5,8 19,13 41,13z"/>
     <path id="6" class="fil5" d="M3272 4688c0,27 -6,44 -16,51 -11,7 -32,10 -61,10l-39 1 -55 -1c-18,0 -32,-4 -41,-12 -9,-9 -13,-22 -13,-41l0 -139 23 0 0 135c0,16 4,25 11,30 6,4 18,6 35,6l41 1 44 -1c18,0 30,-2 37,-7 7,-4 11,-14 11,-30l0 -5 0 -129 23 0 0 131z"/>
     <path id="7" class="fil5" d="M3543 4614c0,17 -2,29 -7,35 -5,6 -16,11 -33,13 13,2 22,5 28,10 6,4 9,12 9,24l0 52 -23 0 0 -43c0,-14 -3,-23 -9,-28 -6,-4 -16,-6 -31,-6l-130 0 0 77 -24 0 0 -191 156 0c23,0 39,4 49,11 10,8 15,23 15,46zm-24 -2c0,-15 -3,-24 -10,-29 -7,-4 -19,-7 -35,-7l-127 0 0 75 127 0c17,0 29,-2 36,-8 6,-5 9,-15 9,-31z"/>
     <path id="8" class="fil5" d="M3835 4582c-4,-2 -12,-4 -22,-5 -11,-1 -24,-2 -41,-2l-8 0c-12,0 -25,0 -39,2 -13,1 -23,3 -29,5 -6,3 -10,7 -12,11 -2,5 -3,11 -3,17 0,12 4,20 10,24 6,5 16,7 28,7l21 0 45 0c8,0 15,0 21,0 6,0 15,1 27,2 13,2 23,6 30,13 8,8 11,20 11,38 0,11 -1,21 -5,29 -4,8 -10,13 -19,17 -8,4 -19,7 -31,8 -12,1 -26,2 -40,2l-15 0c-15,0 -25,-1 -33,-1 -7,0 -18,-1 -33,-3 -14,-2 -25,-7 -31,-16 -6,-8 -10,-23 -10,-44l24 0 0 4c0,10 0,18 2,23 2,5 7,9 14,11 8,2 18,4 31,4 12,1 25,1 37,1 20,0 36,0 50,-2 14,-2 23,-5 28,-10 5,-5 7,-13 7,-24 0,-13 -3,-22 -9,-26 -7,-4 -17,-6 -33,-6l-43 0 -52 -1c-17,0 -31,-4 -41,-10 -10,-7 -15,-19 -15,-35 0,-13 2,-24 7,-33 4,-8 11,-15 21,-18 10,-4 22,-7 35,-8 14,-1 29,-1 46,-1 14,0 24,0 30,0 6,1 16,1 30,3 14,1 25,7 32,15 8,9 12,22 12,39l-24 0c0,-9 -1,-16 -3,-20 -2,-5 -5,-8 -8,-10z"/>
     <path id="9" class="fil5" d="M3982 4555l84 0c40,0 66,5 77,16 11,10 17,35 17,74l0 7 0 6c0,13 -1,28 -3,43 -2,15 -7,27 -16,35 -9,8 -23,12 -42,12 -6,1 -13,1 -22,2 -9,0 -17,0 -25,0l-43 0 -5 0c-12,0 -23,-1 -34,-2 -10,-1 -19,-3 -27,-6 -7,-3 -13,-9 -18,-16 -4,-8 -7,-18 -9,-30 -1,-12 -2,-26 -2,-42 0,-16 0,-27 1,-34 0,-7 2,-16 4,-29 3,-13 10,-22 21,-27 10,-6 24,-9 42,-9zm5 174l49 1 18 0 6 0c14,0 28,-1 41,-2 14,-2 23,-6 28,-14 4,-8 6,-19 6,-35l0 -39c0,-12 0,-22 -1,-31 -1,-9 -3,-16 -6,-21 -4,-4 -8,-8 -13,-9 -5,-1 -11,-2 -16,-3 -5,0 -11,-1 -17,-1l-45 0 -45 0c-21,0 -36,3 -43,9 -6,6 -10,19 -10,40l-1 29 0 14c0,24 3,40 8,49 5,8 19,13 41,13z"/>
     <path id="10" class="fil5" d="M4366 4748l-49 2 -21 0 -43 -2c-34,-3 -51,-21 -51,-54l-1 -37c0,-14 0,-25 1,-32 0,-7 1,-17 4,-30 2,-12 8,-22 18,-28 9,-7 23,-10 40,-10 7,-1 15,-2 21,-2 7,0 15,0 24,0l7 0 28 0c11,0 20,0 26,1 7,0 16,1 28,4 11,2 18,8 23,18 4,10 6,24 6,41l-22 0 0 -2c0,-9 -1,-16 -2,-22 -1,-5 -4,-10 -7,-12 -4,-3 -12,-5 -22,-6 -11,-1 -25,-2 -44,-2 -6,0 -17,0 -31,1 -14,1 -24,1 -31,1 -17,1 -27,4 -32,9 -4,4 -7,12 -8,23 -1,11 -2,21 -2,31 -1,9 -1,17 -1,26 0,24 3,41 8,50 5,9 17,14 38,14l45 0 43 0c17,0 30,-2 36,-6 7,-5 11,-15 11,-30l0 -8 24 0c0,24 -4,41 -12,49 -7,9 -25,13 -52,13z"/>
     <polygon id="11" class="fil5" points="4499,4748 4476,4748 4476,4557 4499,4557 "/>
     <path id="12" class="fil5" d="M4547 4748l-27 0 113 -191 30 0 114 191 -27 0 -25 -43 -153 0 -25 43zm36 -62l131 0 -66 -112 -65 112z"/>
     <polygon id="13" class="fil5" points="4972,4748 4798,4748 4798,4557 4821,4557 4821,4729 4972,4729 "/>
     <path id="14" class="fil5" d="M5291 4611c0,11 -1,21 -2,29 -2,9 -5,15 -9,20 -5,4 -11,8 -17,10 -7,2 -17,3 -30,3l-134 0 0 75 -23 0 0 -191 158 0c21,0 36,4 44,11 9,8 13,22 13,43zm-24 1c0,-13 -3,-22 -8,-28 -5,-5 -14,-8 -27,-8l-133 0 0 78 120 0c19,0 32,-2 38,-7 7,-5 10,-16 10,-35z"/>
     <path id="15" class="fil5" d="M5551 4614c0,17 -2,29 -8,35 -5,6 -16,11 -33,13 13,2 23,5 29,10 6,4 9,12 9,24l0 52 -23 0 0 -43c0,-14 -3,-23 -9,-28 -6,-4 -17,-6 -32,-6l-130 0 0 77 -23 0 0 -191 155 0c23,0 40,4 50,11 10,8 15,23 15,46zm-24 -2c0,-15 -3,-24 -11,-29 -7,-4 -18,-7 -34,-7l-128 0 0 75 128 0c17,0 29,-2 35,-8 7,-5 10,-15 10,-31z"/>
     <polygon id="16" class="fil5" points="5780,4640 5780,4659 5620,4659 5620,4729 5788,4729 5788,4748 5597,4748 5597,4557 5786,4557 5786,4576 5620,4576 5620,4640 "/>
     <path id="17" class="fil5" d="M6008 4582c-4,-2 -12,-4 -22,-5 -11,-1 -24,-2 -41,-2l-8 0c-12,0 -25,0 -39,2 -13,1 -23,3 -29,5 -6,3 -10,7 -12,11 -2,5 -2,11 -2,17 0,12 3,20 9,24 7,5 16,7 28,7l21 0 45 0c8,0 15,0 21,0 6,0 15,1 27,2 13,2 23,6 30,13 8,8 11,20 11,38 0,11 -1,21 -5,29 -4,8 -10,13 -18,17 -9,4 -20,7 -32,8 -12,1 -26,2 -40,2l-15 0c-15,0 -25,-1 -33,-1 -7,0 -18,-1 -32,-3 -15,-2 -26,-7 -32,-16 -6,-8 -10,-23 -10,-44l24 0 0 4c0,10 1,18 2,23 2,5 7,9 14,11 8,2 18,4 31,4 12,1 25,1 37,1 20,0 36,0 50,-2 14,-2 23,-5 28,-10 5,-5 7,-13 7,-24 0,-13 -3,-22 -9,-26 -7,-4 -17,-6 -33,-6l-43 0 -52 -1c-17,0 -31,-4 -41,-10 -10,-7 -15,-19 -15,-35 0,-13 3,-24 7,-33 4,-8 11,-15 21,-18 10,-4 22,-7 35,-8 14,-1 29,-1 46,-1 14,0 24,0 30,0 6,1 16,1 30,3 14,1 25,7 32,15 8,9 12,22 12,39l-24 0c0,-9 -1,-16 -3,-20 -2,-5 -5,-8 -8,-10z"/>
     <polygon id="18" class="fil5" points="6276,4640 6276,4659 6116,4659 6116,4729 6284,4729 6284,4748 6093,4748 6093,4557 6282,4557 6282,4576 6116,4576 6116,4640 "/>
     <polygon id="19" class="fil5" points="6330,4748 6330,4557 6369,4557 6545,4729 6545,4557 6568,4557 6568,4748 6530,4748 6353,4574 6353,4748 "/>
     <path id="20" class="fil5" d="M6780 4748l-49 2 -21 0 -42 -2c-34,-3 -51,-21 -51,-54l-2 -37c0,-14 1,-25 1,-32 0,-7 2,-17 4,-30 2,-12 9,-22 18,-28 10,-7 23,-10 40,-10 7,-1 15,-2 21,-2 7,0 15,0 24,0l7 0 28 0c11,0 20,0 27,1 6,0 16,1 27,4 11,2 19,8 23,18 4,10 7,24 7,41l-23 0 0 -2c0,-9 -1,-16 -2,-22 -1,-5 -3,-10 -7,-12 -4,-3 -11,-5 -22,-6 -10,-1 -25,-2 -43,-2 -7,0 -18,0 -32,1 -14,1 -24,1 -31,1 -17,1 -27,4 -32,9 -4,4 -7,12 -8,23 -1,11 -2,21 -2,31 0,9 -1,17 -1,26 0,24 3,41 8,50 5,9 18,14 39,14l44 0 43 0c17,0 30,-2 37,-6 6,-5 10,-15 10,-30l0 -8 24 0c0,24 -4,41 -12,49 -7,9 -25,13 -52,13z"/>
     <polygon id="21" class="fil5" points="7073,4640 7073,4659 6913,4659 6913,4729 7081,4729 7081,4748 6890,4748 6890,4557 7079,4557 7079,4576 6913,4576 6913,4640 "/>
     <polygon id="22" class="fil5" points="7266,4748 7266,4576 7170,4576 7170,4557 7386,4557 7386,4576 7289,4576 7289,4748 "/>
     <path id="23" class="fil5" d="M7473 4555l84 0c40,0 65,5 77,16 11,10 16,35 16,74l0 7 0 6c0,13 -1,28 -2,43 -2,15 -7,27 -16,35 -10,8 -24,12 -42,12 -6,1 -13,1 -22,2 -9,0 -17,0 -25,0l-43 0 -5 0c-12,0 -23,-1 -34,-2 -11,-1 -20,-3 -27,-6 -7,-3 -13,-9 -18,-16 -5,-8 -8,-18 -9,-30 -1,-12 -2,-26 -2,-42 0,-16 0,-27 1,-34 0,-7 1,-16 4,-29 3,-13 10,-22 20,-27 11,-6 25,-9 43,-9zm5 174l49 1 18 0 6 0c14,0 27,-1 41,-2 14,-2 23,-6 28,-14 4,-8 6,-19 6,-35l0 -39c0,-12 0,-22 -1,-31 -1,-9 -3,-16 -6,-21 -4,-4 -8,-8 -13,-9 -5,-1 -11,-2 -16,-3 -6,0 -11,-1 -18,-1l-45 0 -44 0c-22,0 -36,3 -43,9 -7,6 -10,19 -10,40l-1 29 0 14c0,24 3,40 8,49 5,8 19,13 41,13z"/>
     <path id="24" class="fil5" d="M7933 4650c0,17 -1,32 -4,47 -2,15 -7,26 -15,33 -7,8 -16,13 -27,15 -10,2 -23,3 -37,3l-2 0 -150 0 0 -191 160 0c30,0 51,7 61,22 10,14 14,38 14,71zm-24 0c0,-27 -3,-46 -9,-57 -7,-11 -23,-17 -48,-17l-131 0 0 153 129 0c27,0 43,-6 50,-18 6,-11 9,-32 9,-61z"/>
     <path id="25" class="fil5" d="M7976 4748l-27 0 112 -191 31 0 114 191 -27 0 -25 -43 -153 0 -25 43zm36 -62l131 0 -66 -112 -65 112z"/>
     <polygon id="26" class="fil5" points="8438,4557 8328,4667 8328,4748 8304,4748 8304,4667 8195,4557 8227,4557 8316,4646 8405,4557 "/>
     <polygon class="fil1" points="595,4652 886,4633 1176,4613 1176,4652 1176,4692 886,4672 "/>
     <polygon class="fil1" points="9075,4652 8784,4633 8494,4613 8494,4652 8494,4692 8784,4672 "/>
    </g>
   </g>
  </g>
  <rect class="fil6" x="187" y="3470" width="10626" height="1559"/>
 </g>
</svg>
