<?xml version="1.0" encoding="utf-8"?>
<!-- Generator: Adobe Illustrator 24.0.3, SVG Export Plug-In . SVG Version: 6.00 Build 0)  -->
<svg version="1.1" id="Capa_1" xmlns="http://www.w3.org/2000/svg" xmlns:xlink="http://www.w3.org/1999/xlink" x="0px" y="0px"
	 viewBox="0 0 310 154.1" style="enable-background:new 0 0 310 154.1;" xml:space="preserve">
<style type="text/css">
	.st0{fill:#198C65;}
</style>
<g>
	<rect x="125.6" y="124.2" class="st0" width="6.3" height="23.4"/>
	<polyline class="st0" points="105.2,124.2 105.2,144.4 108.3,144.4 	"/>
	<polygon class="st0" points="108.3,147.5 102.1,147.5 102.1,124.2 108.3,124.2 	"/>
	<polygon class="st0" points="84.9,147.5 78.6,147.5 78.6,124.2 84.9,124.2 	"/>
	<path class="st0" d="M125.5,53.8l0-0.7c0-16.5-13.9-30.8-33.6-37c8.5,8.3,14.5,21.4,16,37h0c0,0.2,0.1,0.5,0.1,0.7h-6.6
		c-1.8-19-11.2-34.3-23.3-39.3c5.2,11.8,6,33.7,6.2,39.3l-6.2-0.1c-0.9-26.8-6.1-39.6-8.4-40.8c-3.1,1.4-8.6,18.5-8.6,47.6v87H55
		v-87c0-13.9,1.5-34.7,6.5-46c-0.1,0-0.2,0.1-0.4,0.2c-0.3,0.1-0.5,0.2-0.8,0.3c-0.5,0.2-0.9,0.5-1.4,0.7c-0.1,0-0.1,0.1-0.2,0.1
		c-0.2,0.1-0.4,0.2-0.6,0.4c-1.7,1-3.3,2.2-4.9,3.6c-0.2,0.2-0.4,0.3-0.6,0.5c-0.3,0.3-0.5,0.5-0.8,0.8c-0.2,0.2-0.4,0.4-0.6,0.6
		c-1,1.1-1.9,2.2-2.8,3.4c-0.1,0.2-0.2,0.3-0.3,0.5c-1.1,1.5-2.1,3-3,4.7c-0.2,0.3-0.3,0.5-0.4,0.8c-0.1,0.1-0.1,0.2-0.2,0.3
		c-0.3,0.5-0.5,1-0.7,1.5c0,0.1-0.1,0.2-0.1,0.3c-0.1,0.3-0.2,0.5-0.4,0.8c-0.1,0.3-0.3,0.6-0.4,1c-0.1,0.3-0.3,0.6-0.4,1
		c-0.1,0.3-0.2,0.5-0.3,0.8c0,0.1-0.1,0.2-0.1,0.3c-0.2,0.6-0.4,1.1-0.6,1.7c0,0.1-0.1,0.2-0.1,0.2c-0.1,0.3-0.2,0.7-0.3,1
		c-0.1,0.3-0.2,0.7-0.3,1c-0.4,1.2-0.7,2.3-1,3.5c-0.1,0.3-0.1,0.5-0.2,0.8c-0.1,0.3-0.1,0.5-0.2,0.8c0,0.2-0.1,0.4-0.1,0.7
		c-0.2,1-0.4,2-0.5,3.1c-0.1,0.8-0.2,1.5-0.3,2.3c-0.1,0.4-0.1,0.8-0.1,1.2c0,0.2,0,0.3,0,0.5c-0.1,0.6-0.1,1.1-0.1,1.7
		c0,0.3,0,0.7-0.1,1c0,0.3,0,0.6-0.1,1c0,0.3,0,0.5,0,0.8c0,0.4,0,0.7,0,1.1c0,0.4,0,0.8,0,1.2v87h-6.3l0-87c0-1.2,0-2.5,0.1-3.7
		c0-0.3,0-0.6,0.1-1c0-0.2,0-0.5,0-0.7c0.1-1.5,0.2-2.9,0.4-4.3c0-0.3,0.1-0.6,0.1-0.9c0-0.3,0.1-0.6,0.1-1c0.2-1.1,0.4-2.2,0.6-3.3
		c0.1-0.2,0.1-0.5,0.2-0.7c0.1-0.3,0.1-0.5,0.2-0.8c0.4-1.7,0.8-3.4,1.3-5c0.1-0.3,0.2-0.7,0.3-1c0.1-0.3,0.2-0.6,0.3-1
		c0.1-0.4,0.3-0.8,0.4-1.2c0.4-1.2,0.9-2.4,1.4-3.5c0.1-0.3,0.3-0.6,0.4-0.9c0.2-0.3,0.3-0.7,0.5-1c0.1-0.3,0.3-0.5,0.4-0.8
		c0.1-0.2,0.2-0.4,0.3-0.7c0.2-0.3,0.4-0.7,0.5-1c0.2-0.4,0.5-0.9,0.7-1.3c0.2-0.3,0.4-0.7,0.6-1c0.1-0.2,0.2-0.4,0.3-0.6
		c0.4-0.7,0.8-1.3,1.2-1.9c0.1-0.1,0.2-0.3,0.3-0.4c0.2-0.3,0.4-0.6,0.6-0.9c0,0,0-0.1,0.1-0.1c0.3-0.4,0.5-0.7,0.8-1.1
		c0.3-0.4,0.6-0.7,0.9-1.1c0.2-0.3,0.4-0.5,0.7-0.8c0-0.1,0.1-0.1,0.1-0.2c0.2-0.3,0.4-0.5,0.7-0.8c0,0,0,0,0.1-0.1
		c0.2-0.2,0.4-0.5,0.6-0.7c0.2-0.2,0.4-0.4,0.6-0.7c0.3-0.3,0.6-0.6,0.9-0.9c-20.1,6.1-34.2,20.5-34.2,37.2l0,94.4H7.8V53.2
		c0-25.7,27.8-46.6,62-46.6h0l0,0.4l0,0.2V6.9l0-0.3c0.1,0,0.1,0,0.2,0v0c34,0.1,61.7,21.6,61.7,47.2L125.5,53.8z"/>
	<path class="st0" d="M69.8,6.6v0.7l0-0.2L69.8,6.6C69.8,6.6,69.8,6.6,69.8,6.6z"/>
	<polygon class="st0" points="69.8,6.9 69.8,7.3 69.8,7 	"/>
	<polygon class="st0" points="31.6,147.5 31.6,147.5 31.6,60.6 	"/>
	<polygon class="st0" points="37.8,147.5 37.8,147.5 37.8,60.6 	"/>
	<path d="M71.5,87c0-2.8,0.5-5.4,1.4-7.7c0.9-2.3,2.2-4.3,3.9-5.9c1.7-1.6,3.6-2.9,5.9-3.8c2.3-0.9,4.8-1.3,7.5-1.3
		c2.8,0,5.3,0.4,7.6,1.2c2.3,0.9,4.3,2.1,6,3.7c1.7,1.6,3,3.6,3.9,5.9c0.9,2.3,1.4,4.9,1.4,7.7c0,2.8-0.5,5.3-1.4,7.6
		c-0.9,2.3-2.2,4.2-3.9,5.9c-1.7,1.6-3.7,2.9-6,3.8c-2.3,0.9-4.8,1.4-7.6,1.4c-2.7,0-5.3-0.4-7.5-1.3c-2.3-0.9-4.3-2.1-5.9-3.8
		c-1.7-1.6-2.9-3.6-3.9-5.8C72,92.3,71.5,89.8,71.5,87z M78.1,86.6c0,1.9,0.3,3.7,0.9,5.3c0.6,1.6,1.4,3,2.5,4.2
		c1.1,1.2,2.3,2.1,3.8,2.8c1.5,0.7,3.1,1,5,1c1.8,0,3.5-0.3,5-1c1.5-0.7,2.8-1.6,3.9-2.8c1.1-1.2,1.9-2.6,2.5-4.2
		c0.6-1.6,0.9-3.4,0.9-5.3c0-1.8-0.3-3.4-0.9-5c-0.6-1.5-1.4-2.9-2.5-4c-1.1-1.2-2.4-2.1-3.9-2.7c-1.5-0.7-3.2-1-5-1
		c-1.8,0-3.5,0.3-5,1c-1.5,0.7-2.8,1.6-3.8,2.7c-1.1,1.2-1.9,2.5-2.5,4C78.4,83.2,78.1,84.9,78.1,86.6z"/>
	<path d="M111.6,80.6h5.7v3.6h0.1c0.9-1.5,2-2.5,3.5-3.2c1.5-0.7,3.1-1,4.8-1c1.8,0,3.5,0.3,5,1c1.5,0.7,2.7,1.5,3.8,2.7
		c1,1.1,1.8,2.5,2.4,4c0.5,1.5,0.8,3.2,0.8,5c0,1.8-0.3,3.4-0.9,5c-0.6,1.5-1.4,2.9-2.4,4c-1,1.1-2.2,2-3.7,2.7c-1.4,0.7-3,1-4.7,1
		c-1.1,0-2.1-0.1-3-0.3c-0.9-0.2-1.6-0.5-2.3-0.9c-0.7-0.4-1.2-0.8-1.7-1.2c-0.5-0.4-0.9-0.8-1.2-1.2h-0.2v14.5h-6L111.6,80.6
		L111.6,80.6z M131.5,92.6c0-0.9-0.2-1.8-0.5-2.7c-0.3-0.9-0.8-1.6-1.4-2.3c-0.6-0.7-1.4-1.2-2.2-1.6c-0.9-0.4-1.9-0.6-3-0.6
		c-1.1,0-2.1,0.2-3,0.6c-0.9,0.4-1.6,0.9-2.2,1.6c-0.6,0.7-1.1,1.4-1.4,2.3c-0.3,0.9-0.5,1.8-0.5,2.7c0,0.9,0.2,1.8,0.5,2.7
		c0.3,0.9,0.8,1.6,1.4,2.3c0.6,0.7,1.4,1.2,2.2,1.6c0.9,0.4,1.9,0.6,3,0.6c1.1,0,2.1-0.2,3-0.6c0.9-0.4,1.6-0.9,2.2-1.6
		c0.6-0.7,1.1-1.4,1.4-2.3C131.3,94.4,131.5,93.5,131.5,92.6z"/>
	<path d="M145.4,94.7c0.2,1.8,0.9,3.2,2.1,4.2c1.2,1,2.7,1.5,4.4,1.5c1.5,0,2.8-0.3,3.8-0.9c1-0.6,1.9-1.4,2.7-2.3l4.3,3.3
		c-1.4,1.7-3,3-4.7,3.7c-1.7,0.7-3.6,1.1-5.5,1.1c-1.8,0-3.5-0.3-5.1-0.9c-1.6-0.6-3-1.5-4.2-2.6c-1.2-1.1-2.1-2.4-2.8-4
		c-0.7-1.6-1-3.3-1-5.2c0-1.9,0.3-3.6,1-5.2c0.7-1.6,1.6-2.9,2.8-4c1.2-1.1,2.6-2,4.2-2.6c1.6-0.6,3.3-0.9,5.1-0.9
		c1.7,0,3.2,0.3,4.6,0.9c1.4,0.6,2.6,1.4,3.6,2.5c1,1.1,1.8,2.5,2.3,4.1c0.6,1.6,0.8,3.5,0.8,5.6v1.7L145.4,94.7L145.4,94.7z
		 M157.8,90.2c0-1.8-0.6-3.2-1.7-4.2c-1.1-1-2.6-1.5-4.5-1.5c-1.8,0-3.2,0.5-4.3,1.6c-1.1,1-1.7,2.4-1.9,4.2L157.8,90.2L157.8,90.2z
		"/>
	<path d="M166.9,80.6h5.7v3.9h0.1c0.6-1.2,1.4-2.2,2.6-3.1c1.2-0.9,2.8-1.3,4.8-1.3c1.6,0,3,0.3,4.1,0.8c1.1,0.5,2,1.2,2.7,2.1
		c0.7,0.9,1.2,1.9,1.5,3c0.3,1.1,0.5,2.3,0.5,3.6v15.2h-6V92.5c0-0.7,0-1.4-0.1-2.2c-0.1-0.8-0.2-1.6-0.5-2.3
		c-0.3-0.7-0.7-1.3-1.3-1.8c-0.6-0.5-1.4-0.7-2.5-0.7c-1,0-1.8,0.2-2.5,0.5c-0.7,0.3-1.3,0.8-1.7,1.4c-0.5,0.6-0.8,1.2-1,2
		c-0.2,0.7-0.3,1.5-0.3,2.3v13.1h-6L166.9,80.6L166.9,80.6z"/>
	<path d="M218.1,77.5c-1.3-1.4-2.6-2.3-3.8-2.8c-1.2-0.5-2.4-0.7-3.7-0.7c-1.8,0-3.5,0.3-5,1c-1.5,0.7-2.8,1.6-3.8,2.7
		c-1.1,1.2-1.9,2.5-2.5,4c-0.6,1.5-0.9,3.2-0.9,5c0,1.9,0.3,3.7,0.9,5.3c0.6,1.6,1.4,3,2.5,4.2c1.1,1.2,2.3,2.1,3.8,2.8
		c1.5,0.7,3.1,1,5,1c1.4,0,2.8-0.3,4.2-1c1.4-0.7,2.6-1.8,3.8-3.3l5.2,3.7c-1.6,2.2-3.6,3.8-5.9,4.8c-2.3,1-4.8,1.5-7.4,1.5
		c-2.7,0-5.3-0.4-7.5-1.3c-2.3-0.9-4.3-2.1-5.9-3.8c-1.7-1.6-2.9-3.6-3.9-5.8c-0.9-2.3-1.4-4.8-1.4-7.6c0-2.8,0.5-5.4,1.4-7.7
		c0.9-2.3,2.2-4.3,3.9-5.9s3.6-2.9,5.9-3.8c2.3-0.9,4.8-1.3,7.5-1.3c2.4,0,4.6,0.4,6.7,1.3c2.1,0.9,4,2.3,5.7,4.3L218.1,77.5z"/>
	<path d="M241.8,101.3h-0.1c-0.9,1.4-2,2.4-3.3,3c-1.3,0.6-2.8,0.9-4.4,0.9c-1.1,0-2.2-0.1-3.2-0.4c-1.1-0.3-2-0.8-2.8-1.4
		c-0.8-0.6-1.5-1.4-2-2.3c-0.5-0.9-0.8-2-0.8-3.2c0-1.3,0.2-2.4,0.7-3.3c0.5-0.9,1.1-1.7,1.9-2.3c0.8-0.6,1.7-1.1,2.7-1.5
		c1-0.4,2.1-0.6,3.2-0.8c1.1-0.2,2.2-0.3,3.4-0.4c1.1,0,2.2-0.1,3.2-0.1h1.5V89c0-1.5-0.5-2.6-1.6-3.4c-1-0.8-2.4-1.1-4-1.1
		c-1.3,0-2.5,0.2-3.6,0.7c-1.1,0.4-2.1,1.1-2.9,1.8l-3.2-3.2c1.3-1.4,2.9-2.4,4.7-3c1.8-0.6,3.6-0.9,5.5-0.9c1.7,0,3.1,0.2,4.3,0.6
		c1.2,0.4,2.1,0.9,2.9,1.5c0.8,0.6,1.4,1.3,1.8,2.1c0.4,0.8,0.7,1.6,0.9,2.4c0.2,0.8,0.3,1.6,0.3,2.3c0,0.8,0,1.4,0,2v13.8h-5.4
		L241.8,101.3L241.8,101.3z M241.4,93.9h-1.3c-0.8,0-1.8,0-2.8,0.1c-1,0.1-2,0.2-2.9,0.5c-0.9,0.3-1.7,0.6-2.3,1.1
		c-0.6,0.5-1,1.2-1,2c0,0.6,0.1,1,0.4,1.4c0.3,0.4,0.6,0.7,1,1c0.4,0.3,0.8,0.5,1.4,0.6c0.5,0.1,1,0.2,1.5,0.2
		c2.1,0,3.6-0.5,4.6-1.5c1-1,1.5-2.3,1.5-4L241.4,93.9L241.4,93.9z"/>
	<path d="M275.5,80.6v21.9c0,2.2-0.3,4.1-0.8,5.9c-0.5,1.8-1.4,3.2-2.5,4.5s-2.5,2.2-4.2,2.8c-1.7,0.7-3.7,1-6.1,1
		c-2.2,0-4.4-0.3-6.4-0.9c-2-0.6-3.9-1.6-5.6-3.1l3.6-4.9c1.2,1.1,2.5,2,3.8,2.6c1.3,0.6,2.8,0.9,4.5,0.9c1.4,0,2.6-0.2,3.6-0.6
		c1-0.4,1.8-1,2.4-1.7c0.6-0.7,1-1.5,1.3-2.5c0.3-1,0.4-2.1,0.4-3.3v-1.8h-0.1c-0.9,1.2-2,2-3.5,2.6c-1.4,0.6-2.9,0.9-4.4,0.9
		c-1.8,0-3.4-0.3-4.9-1c-1.5-0.7-2.7-1.5-3.8-2.6c-1.1-1.1-1.9-2.4-2.4-3.9c-0.6-1.5-0.9-3.1-0.9-4.8c0-1.8,0.3-3.4,0.8-5
		c0.5-1.5,1.3-2.9,2.4-4c1-1.1,2.3-2,3.7-2.7c1.5-0.7,3.1-1,5-1c1.7,0,3.3,0.3,4.8,1c1.5,0.7,2.6,1.7,3.5,3.2h0.1v-3.6L275.5,80.6
		L275.5,80.6z M262.6,85.4c-1.1,0-2,0.2-2.9,0.5c-0.9,0.4-1.6,0.8-2.2,1.5c-0.6,0.6-1.1,1.4-1.4,2.3c-0.4,0.9-0.5,1.9-0.5,2.9
		c0,1,0.2,1.9,0.5,2.7c0.3,0.8,0.8,1.6,1.5,2.2c0.6,0.6,1.4,1.1,2.3,1.5c0.9,0.4,1.8,0.6,2.8,0.6c1.1,0,2.1-0.2,3-0.6
		c0.9-0.4,1.6-0.9,2.3-1.5c0.6-0.6,1.1-1.4,1.4-2.2c0.3-0.9,0.5-1.8,0.5-2.8c0-2.1-0.6-3.8-1.9-5.1C266.6,86,264.8,85.4,262.6,85.4z
		"/>
	<path d="M283.8,94.7c0.2,1.8,0.9,3.2,2.1,4.2c1.2,1,2.7,1.5,4.4,1.5c1.5,0,2.8-0.3,3.8-0.9c1-0.6,1.9-1.4,2.7-2.3l4.3,3.3
		c-1.4,1.7-3,3-4.7,3.7c-1.7,0.7-3.6,1.1-5.5,1.1c-1.8,0-3.5-0.3-5.1-0.9c-1.6-0.6-3-1.5-4.2-2.6c-1.2-1.1-2.1-2.4-2.8-4
		c-0.7-1.6-1-3.3-1-5.2c0-1.9,0.3-3.6,1-5.2c0.7-1.6,1.6-2.9,2.8-4c1.2-1.1,2.6-2,4.2-2.6c1.6-0.6,3.3-0.9,5.1-0.9
		c1.7,0,3.2,0.3,4.6,0.9c1.4,0.6,2.6,1.4,3.6,2.5c1,1.1,1.8,2.5,2.3,4.1c0.6,1.6,0.8,3.5,0.8,5.6v1.7L283.8,94.7L283.8,94.7z
		 M296.1,90.2c0-1.8-0.6-3.2-1.7-4.2c-1.1-1-2.6-1.5-4.5-1.5c-1.8,0-3.2,0.5-4.3,1.6c-1.1,1-1.7,2.4-1.9,4.2L296.1,90.2L296.1,90.2z
		"/>
</g>
</svg>
