<?xml version="1.0" encoding="utf-8"?>
<!-- Generator: Adobe Illustrator 19.2.1, SVG Export Plug-In . SVG Version: 6.00 Build 0)  -->
<svg version="1.1" xmlns="http://www.w3.org/2000/svg" xmlns:xlink="http://www.w3.org/1999/xlink" x="0px" y="0px"
	 viewBox="0 0 335.8 159.4" style="enable-background:new 0 0 335.8 159.4;" xml:space="preserve">
<style type="text/css">
	.st0{fill:#FFFFFF;}
	.st1{opacity:0.68;fill:#FFFFFF;enable-background:new    ;}
</style>
<g id="Ebene_2">
</g>
<g id="svg4062" inkscape:export-filename="/home/reneeb/dev/git/PerlServices/allgemein/Logo.png" inkscape:export-xdpi="72" inkscape:export-ydpi="72" inkscape:version="0.48.2 r9819" sodipodi:docname="Logo.svg" xmlns:cc="http://creativecommons.org/ns#" xmlns:dc="http://purl.org/dc/elements/1.1/" xmlns:inkscape="http://www.inkscape.org/namespaces/inkscape" xmlns:rdf="http://www.w3.org/1999/02/22-rdf-syntax-ns#" xmlns:sodipodi="http://sodipodi.sourceforge.net/DTD/sodipodi-0.dtd" xmlns:svg="http://www.w3.org/2000/svg">
	<defs>
		
		
			<inkscape:path-effect  bendpath="m 17.113281,105.81754 95.273429,0" effect="bend_path" id="path-effect4128" is_visible="true" prop_scale="1" scale_y_rel="false" vertical="false">
			</inkscape:path-effect>
		
			<inkscape:path-effect  bendpath="m 17.113281,105.81754 95.273429,0" effect="bend_path" id="path-effect4126" is_visible="true" prop_scale="1" scale_y_rel="false" vertical="false">
			</inkscape:path-effect>
	</defs>
	
		<sodipodi:namedview  bordercolor="#666666" borderopacity="1.0" fit-margin-bottom="5" fit-margin-left="5" fit-margin-right="5" fit-margin-top="5" id="base" inkscape:current-layer="layer1" inkscape:cx="217.52958" inkscape:cy="106.18803" inkscape:document-units="px" inkscape:pageopacity="0.0" inkscape:pageshadow="2" inkscape:window-height="876" inkscape:window-maximized="1" inkscape:window-width="1600" inkscape:window-x="0" inkscape:window-y="24" inkscape:zoom="1.4" pagecolor="#ffffff" showgrid="false">
		</sodipodi:namedview>
	<g id="layer1" transform="translate(-12.113281,-9.825384)" inkscape:groupmode="layer" inkscape:label="Ebene 1">
		
			<path id="path4028" inkscape:connector-curvature="0" inkscape:original-d="m 55.855461,83.169134 -1.47656,7.38281 c -0.89066,4.68753 -1.33597,8.6719 -1.33594,11.953116 -3e-5,2.81252 0.35153,5.13283 1.05469,6.96094 1.45309,3.89064 4.66402,5.83595 9.63281,5.83594 5.10932,1e-5 9.0937,-2.06249 11.95313,-6.1875 2.90618,-4.12498 5.41399,-11.554656 7.52344,-22.289056 1.26555,-6.65621 1.89836,-12.02339 1.89843,-16.10157 -7e-5,-2.53119 -0.23444,-4.57025 -0.70312,-6.11718 -1.31257,-4.12494 -4.5235,-6.18744 -9.63281,-6.1875 -4.96881,6e-5 -8.95318,1.94537 -11.95313,5.83593 -2.95317,3.89068 -5.27348,10.19537 -6.96094,18.91407 m -20.03906,-25.17188 -10.6875,0 1.6875,-8.50781 35.57813,0 -1.82813,9.49219 c 2.85933,-3.89056 6.25776,-6.77337 10.19531,-8.64844 3.93744,-1.9218 8.53119,-2.88274 13.78125,-2.88281 10.64055,7e-5 18.328039,3.51569 23.062499,10.54687 3.18741,4.64069 4.78116,10.45318 4.78125,17.4375 -9e-5,3.51567 -0.39853,7.31254 -1.19531,11.39063 -2.39072,12.2344 -7.33603,21.867196 -14.835939,28.898426 -7.4532,7.03125 -16.50006,10.54688 -27.14062,10.54688 -5.25005,0 -9.49223,-0.9375 -12.72656,-2.8125 -3.18754,-1.92187 -5.43754,-4.82812 -6.75,-8.71875 l -9.16295,49.44526 -22.033479,3e-5 17.274549,-106.187476" inkscape:path-effect="#path-effect4128;#path-effect4126" sodipodi:nodetypes="ccccsccccccccccccccccccsccccc" class="st0" d="
			M55,83.2c-0.5,2.5-1,4.9-1.5,7.4c-0.9,4.7-1.4,8.7-1.4,12c0,2.8,0.4,5.1,1.1,7c1.5,3.9,4.7,5.8,9.8,5.8c5.2,0,9.2-2.1,12.1-6.2
			c3-4.1,5.5-11.6,7.6-22.3c1.3-6.7,1.9-12,1.9-16.1c0-2.5-0.2-4.6-0.7-6.1c-1.3-4.1-4.6-6.2-9.8-6.2c-5,0-9.1,1.9-12.1,5.8
			C59.1,68.1,56.7,74.5,55,83.2z M34.7,58H23.8c0.6-2.8,1.1-5.7,1.7-8.5h36.1c-0.6,3.2-1.2,6.3-1.9,9.5c2.9-3.9,6.4-6.8,10.4-8.6
			c4-1.9,8.7-2.9,14-2.9c10.8,0,18.6,3.5,23.4,10.5c3.2,4.6,4.9,10.5,4.9,17.4c0,3.5-0.4,7.3-1.2,11.4c-2.4,12.2-7.4,21.9-15.1,28.9
			c-7.6,7-16.8,10.5-27.6,10.5c-5.3,0-9.6-0.9-12.9-2.8c-3.2-1.9-5.5-4.8-6.9-8.7c-3.1,16.5-6.2,33-9.3,49.4l-22.4,0L34.7,58z"/>
		<path id="path4030" inkscape:connector-curvature="0" class="st0" d="M178.7,65.7c0-6.9-2.9-10.3-8.7-10.3c-4.5,0-8,2.1-10.6,6.3
			c-2.6,4.2-5.1,12.8-7.5,26c0,0,0.5,0,1.5,0c14.3,0,22.6-5.7,24.8-17.1C178.5,68.9,178.7,67.2,178.7,65.7 M150.1,96.1
			c-0.3,1.6-0.4,4.1-0.4,7.4c0,9.9,4.9,14.8,14.5,14.8c5.4,0,10-1.4,13.9-4.3c3.9-2.9,6.8-7,8.8-12.4h11.7
			c-3.7,8.5-8.9,14.7-15.7,18.7c-6.8,4-15.5,6-26.3,6c-12.9,0-22.2-3.4-27.8-10.2c-3.9-4.8-5.8-10.9-5.8-18.5
			c0-3.2,0.4-6.7,1.1-10.5c2.4-12.5,7.8-22.2,16.2-29.2c8.4-6.9,18.8-10.4,31.2-10.4c9,0,16.5,1.8,22.7,5.3
			c6.2,3.5,9.4,8.4,9.4,14.7c0,1.3-0.1,2.6-0.4,3.9C200.3,86.5,182.6,94.8,150.1,96.1"/>
		<path id="path4032" inkscape:connector-curvature="0" class="st0" d="M294.5,48.6l-4.4,22.3h-7.9c0.1-1,0.2-1.9,0.2-2.7
			c0-2.6-0.6-4.7-1.7-6.1c-1.5-2-4-3-7.6-3c-5.4,0-10.2,2.4-14.3,7.2c-4.1,4.8-6.9,11.4-8.6,19.9l-7.4,38H218L230.9,58h-11.4
			l1.6-8.5h36.3l-2.5,13.3c3.4-5.2,7.4-9,11.9-11.5c4.5-2.5,9.7-3.8,15.5-3.8c1.5,0,3.2,0.1,5.2,0.4C289.4,48,291.8,48.3,294.5,48.6
			"/>
		<path id="path4034" inkscape:connector-curvature="0" class="st0" d="M323.3,115.7H334l-1.6,8.5h-35.6l19.6-101h-10.6l1.6-8.4
			h35.5L323.3,115.7"/>
		<g id="text3945" transform="translate(-218.47266,-829.27344)">
			<path id="path4011" inkscape:connector-curvature="0" class="st0" d="M277.9,984.4c3.2,0,4.9-1.1,4.9-3.3c0-0.7-0.1-1.3-0.4-1.7
				c-0.3-0.5-0.7-0.9-1.2-1.2c-0.5-0.4-1.1-0.7-1.7-0.9c-0.6-0.3-1.3-0.5-2-0.8c-0.8-0.3-1.6-0.6-2.3-0.9c-0.7-0.4-1.4-0.8-1.9-1.2
				c-0.5-0.5-1-1.1-1.3-1.7c-0.3-0.7-0.4-1.5-0.4-2.4c0-1.9,0.7-3.5,2-4.5c1.3-1.1,3.1-1.6,5.5-1.6c1.3,0,2.6,0.1,3.6,0.4
				c1.1,0.3,1.9,0.6,2.4,0.9l-1,2.5c-0.4-0.3-1.1-0.5-2-0.8c-0.9-0.3-1.9-0.4-3.1-0.4c-0.6,0-1.2,0.1-1.7,0.2
				c-0.5,0.1-1,0.3-1.3,0.6c-0.4,0.3-0.7,0.6-0.9,1c-0.2,0.4-0.3,0.8-0.3,1.4c0,0.6,0.1,1.1,0.4,1.5s0.6,0.8,1,1.1
				c0.4,0.3,0.9,0.6,1.5,0.8c0.6,0.3,1.2,0.5,1.9,0.8c1,0.4,1.8,0.8,2.6,1.2c0.8,0.4,1.5,0.8,2.1,1.4c0.6,0.5,1.1,1.2,1.4,1.9
				c0.3,0.7,0.5,1.6,0.5,2.7c0,1.9-0.7,3.4-2.1,4.5c-1.4,1-3.4,1.6-6,1.6c-0.9,0-1.7-0.1-2.4-0.2c-0.7-0.1-1.4-0.2-2-0.4
				c-0.6-0.2-1.1-0.3-1.5-0.5c-0.4-0.2-0.7-0.4-1-0.5l0.9-2.6c0.5,0.3,1.2,0.6,2.2,0.9S276.5,984.4,277.9,984.4"/>
			<path id="path4013" inkscape:connector-curvature="0" class="st0" d="M288.6,978.4c0-1.5,0.2-2.8,0.6-3.8c0.4-1.1,1-2,1.7-2.8
				s1.5-1.3,2.4-1.6c0.9-0.4,1.9-0.5,2.8-0.5c2.2,0,4,0.7,5.2,2.1c1.2,1.4,1.8,3.5,1.8,6.4c0,0.1,0,0.3,0,0.5c0,0.2,0,0.4,0,0.5
				h-11.4c0.1,1.7,0.6,3,1.5,3.9s2.2,1.3,4.1,1.3c1,0,1.9-0.1,2.6-0.3c0.7-0.2,1.3-0.4,1.6-0.5l0.4,2.5c-0.4,0.2-1,0.4-1.9,0.6
				c-0.9,0.2-1.9,0.3-3.1,0.3c-1.5,0-2.7-0.2-3.8-0.6c-1-0.4-1.9-1.1-2.6-1.8c-0.7-0.8-1.2-1.7-1.5-2.7
				C288.8,980.8,288.6,979.6,288.6,978.4 M300.1,976.7c0-1.3-0.3-2.4-1-3.3c-0.7-0.9-1.6-1.3-2.8-1.3c-0.7,0-1.3,0.1-1.8,0.4
				c-0.5,0.3-0.9,0.6-1.3,1c-0.4,0.4-0.7,0.9-0.9,1.5c-0.2,0.6-0.3,1.1-0.4,1.7L300.1,976.7"/>
			<path id="path4015" inkscape:connector-curvature="0" class="st0" d="M313.6,969.7c0.3,0,0.5,0,0.9,0.1c0.3,0,0.7,0.1,1,0.1
				c0.3,0,0.6,0.1,0.9,0.2c0.3,0,0.5,0.1,0.6,0.1l-0.5,2.6c-0.2-0.1-0.6-0.2-1.2-0.3c-0.5-0.1-1.2-0.2-2.1-0.2
				c-0.6,0-1.1,0.1-1.7,0.2c-0.5,0.1-0.9,0.2-1.1,0.2v14h-3v-15.9c0.7-0.3,1.6-0.5,2.6-0.7C311.1,969.8,312.3,969.7,313.6,969.7"/>
			<path id="path4017" inkscape:connector-curvature="0" class="st0" d="M333.5,970c-0.8,3.1-1.8,6.1-2.9,9
				c-1.1,2.9-2.2,5.4-3.2,7.7h-2.7c-1-2.3-2.1-4.8-3.3-7.7c-1.1-2.9-2.1-5.8-2.9-9h3.2c0.3,1,0.6,2.2,0.9,3.4
				c0.4,1.2,0.7,2.3,1.1,3.5c0.4,1.2,0.8,2.3,1.2,3.4c0.4,1.1,0.8,2.1,1.2,2.9c0.4-0.9,0.7-1.8,1.2-2.9s0.8-2.2,1.2-3.4
				c0.4-1.2,0.8-2.3,1.1-3.5c0.4-1.2,0.7-2.3,0.9-3.4H333.5"/>
			<path id="path4019" inkscape:connector-curvature="0" class="st0" d="M339.5,986.6h-3V970h3V986.6 M338,967c-0.5,0-1-0.2-1.4-0.5
				c-0.4-0.4-0.5-0.8-0.5-1.4c0-0.6,0.2-1.1,0.5-1.4c0.4-0.4,0.8-0.5,1.4-0.5c0.5,0,1,0.2,1.3,0.5c0.4,0.3,0.6,0.8,0.6,1.4
				s-0.2,1.1-0.6,1.4C339,966.8,338.6,967,338,967"/>
			<path id="path4021" inkscape:connector-curvature="0" class="st0" d="M351.9,987c-1.3,0-2.5-0.2-3.6-0.6c-1-0.4-1.9-1-2.6-1.8
				c-0.7-0.8-1.2-1.7-1.5-2.7c-0.3-1.1-0.5-2.2-0.5-3.5c0-1.3,0.2-2.5,0.5-3.5c0.4-1.1,0.9-2,1.6-2.8c0.7-0.8,1.5-1.4,2.5-1.8
				c1-0.4,2.1-0.7,3.3-0.7c0.7,0,1.5,0.1,2.2,0.2c0.7,0.1,1.5,0.3,2.1,0.6l-0.7,2.5c-0.4-0.2-1-0.4-1.6-0.5
				c-0.6-0.1-1.2-0.2-1.9-0.2c-1.7,0-2.9,0.5-3.8,1.6c-0.9,1-1.3,2.6-1.3,4.6c0,0.9,0.1,1.7,0.3,2.5c0.2,0.7,0.5,1.4,1,1.9
				c0.4,0.5,1,0.9,1.7,1.2c0.7,0.3,1.5,0.4,2.5,0.4c0.8,0,1.5-0.1,2.1-0.2c0.6-0.1,1.1-0.3,1.5-0.5l0.4,2.5
				c-0.2,0.1-0.4,0.2-0.7,0.3c-0.3,0.1-0.7,0.2-1.1,0.2c-0.4,0.1-0.8,0.1-1.3,0.2C352.8,987,352.3,987,351.9,987"/>
			<path id="path4023" inkscape:connector-curvature="0" class="st0" d="M358.6,978.4c0-1.5,0.2-2.8,0.6-3.8c0.4-1.1,1-2,1.7-2.8
				s1.5-1.3,2.4-1.6c0.9-0.4,1.9-0.5,2.8-0.5c2.2,0,4,0.7,5.2,2.1c1.2,1.4,1.8,3.5,1.8,6.4c0,0.1,0,0.3,0,0.5c0,0.2,0,0.4,0,0.5
				h-11.4c0.1,1.7,0.6,3,1.5,3.9s2.2,1.3,4.1,1.3c1,0,1.9-0.1,2.6-0.3c0.7-0.2,1.3-0.4,1.6-0.5l0.4,2.5c-0.4,0.2-1,0.4-1.9,0.6
				c-0.9,0.2-1.9,0.3-3.1,0.3c-1.5,0-2.7-0.2-3.8-0.6c-1-0.4-1.9-1.1-2.6-1.8c-0.7-0.8-1.2-1.7-1.5-2.7
				C358.8,980.8,358.6,979.6,358.6,978.4 M370.1,976.7c0-1.3-0.3-2.4-1-3.3c-0.7-0.9-1.6-1.3-2.8-1.3c-0.7,0-1.3,0.1-1.8,0.4
				c-0.5,0.3-0.9,0.6-1.3,1c-0.4,0.4-0.7,0.9-0.9,1.5c-0.2,0.6-0.3,1.1-0.4,1.7L370.1,976.7"/>
			<path id="path4025" inkscape:connector-curvature="0" class="st0" d="M381.3,984.5c1.2,0,2.1-0.2,2.7-0.5
				c0.6-0.3,0.9-0.8,0.9-1.5c0-0.7-0.3-1.3-0.9-1.7c-0.6-0.4-1.5-0.9-2.8-1.4c-0.6-0.3-1.3-0.5-1.9-0.8c-0.6-0.3-1.1-0.6-1.5-1
				s-0.8-0.8-1-1.3c-0.3-0.5-0.4-1.1-0.4-1.9c0-1.5,0.5-2.6,1.6-3.5c1.1-0.9,2.6-1.3,4.4-1.3c0.5,0,0.9,0,1.4,0.1
				c0.5,0,0.9,0.1,1.3,0.2c0.4,0.1,0.8,0.1,1.1,0.2c0.3,0.1,0.6,0.2,0.7,0.2l-0.5,2.6c-0.3-0.2-0.8-0.3-1.5-0.5
				c-0.7-0.2-1.5-0.3-2.5-0.3c-0.8,0-1.6,0.2-2.2,0.5c-0.6,0.3-0.9,0.8-0.9,1.5c0,0.4,0.1,0.7,0.2,1c0.1,0.3,0.4,0.5,0.6,0.8
				c0.3,0.2,0.7,0.4,1.1,0.6c0.4,0.2,0.9,0.4,1.5,0.6c0.8,0.3,1.5,0.6,2.1,0.9c0.6,0.3,1.1,0.6,1.6,1c0.4,0.4,0.8,0.9,1,1.4
				c0.2,0.5,0.4,1.2,0.4,2c0,1.5-0.6,2.7-1.7,3.5c-1.1,0.8-2.8,1.2-4.9,1.2c-1.5,0-2.6-0.1-3.5-0.4c-0.8-0.2-1.4-0.4-1.7-0.5
				l0.5-2.6c0.3,0.1,0.9,0.3,1.6,0.6S380.1,984.5,381.3,984.5"/>
		</g>
		<path id="rect3949" inkscape:connector-curvature="0" class="st1" d="M187.8,134.5h31.7c1.9,0,3.4,1.8,3.4,4.1v16
			c0,2.3-1.5,4.1-3.4,4.1h-31.7c-1.9,0-3.4-1.8-3.4-4.1v-16C184.4,136.4,185.9,134.5,187.8,134.5z"/>
		<path id="rect3949-3" inkscape:connector-curvature="0" class="st1" d="M244.2,133.8H276c1.9,0,3.4,1.8,3.4,4.1v16
			c0,2.3-1.5,4.1-3.4,4.1h-31.7c-1.9,0-3.4-1.8-3.4-4.1v-16C240.8,135.6,242.3,133.8,244.2,133.8z"/>
		<path id="rect3949-3-2" inkscape:connector-curvature="0" class="st1" d="M298.5,133.8h31.7c1.9,0,3.4,1.8,3.4,4.1v16
			c0,2.3-1.5,4.1-3.4,4.1h-31.7c-1.9,0-3.4-1.8-3.4-4.1v-16C295.1,135.6,296.6,133.8,298.5,133.8z"/>
	</g>
</g>
</svg>
